<?xml version="1.0" encoding="utf-8"?>
<!DOCTYPE svg PUBLIC "-//W3C//DTD SVG 1.0//EN" "http://www.w3.org/TR/2001/REC-SVG-20010904/DTD/svg10.dtd">
<svg version="1.0" xmlns="http://www.w3.org/2000/svg" width="1080px" height="1080px" viewBox="0 0 1080 1080" preserveAspectRatio="xMidYMid meet">
 <g fill="#ffffff">
  <path d="M 176 974 c -7.3 -0.3 -12.4 -1 -14 -1.9 -1.6 -1 -6.5 -1.6 -14 -1.9 -8.9 -0.3 -12.2 -0.8 -14.5 -2.3 -1.7 -1 -5 -2.1 -7.4 -2.5 -2.3 -0.4 -4.9 -1.3 -5.6 -2.1 -0.8 -0.8 -2.9 -1.9 -4.7 -2.5 -3 -1 -6.8 -3.6 -10.8 -7.2 -0.8 -0.7 -2.8 -2 -4.5 -2.9 -4.5 -2.3 -17.5 -15.4 -22 -22 -6.9 -10.2 -9.4 -14.1 -10.5 -16.5 -0.5 -1.2 -1.8 -3.5 -2.9 -5 -1 -1.5 -2.2 -4.7 -2.5 -7.2 -0.4 -2.4 -1.4 -5.2 -2.2 -6.1 -1.1 -1.3 -1.8 -5.4 -2.5 -14.6 -0.9 -13.7 -0.9 -658.4 0 -703.4 0.5 -23.8 0.8 -26.9 2.4 -28.7 1 -1.1 2.1 -4.3 2.6 -7.1 0.4 -2.8 1.5 -5.9 2.4 -6.9 0.8 -0.9 2 -3.6 2.6 -5.8 0.6 -2.3 1.7 -4.4 2.5 -4.7 0.7 -0.3 1.6 -1.7 2 -3.1 1.5 -5.9 13.7 -20.8 23.9 -29.2 4.4 -3.5 8.7 -6.4 9.6 -6.4 1 0 2.6 -0.9 3.6 -2 1 -1.1 2.6 -2 3.5 -2 0.9 0 3.9 -1.2 6.6 -2.7 4.9 -2.8 4.9 -2.8 412.9 -2.8 408 0 408 0 413.6 2.7 3.1 1.6 6.2 2.8 6.8 2.8 0.7 0 2.4 0.9 3.8 2 1.4 1.1 3.3 2 4.2 2 1 0 3.2 1.1 5.1 2.5 1.9 1.4 4.1 2.5 5.1 2.5 0.9 0 2.2 0.7 3 1.6 1.5 1.8 11.2 8.4 12.5 8.4 0.4 0 1.7 0.9 2.9 2 19.6 19 25.4 25.4 31 34 1.6 2.5 3.7 5.4 4.6 6.5 0.9 1.1 2 3.1 2.4 4.5 0.4 1.4 1.6 3.6 2.6 4.9 1.1 1.3 1.9 3.4 1.9 4.7 0 1.3 0.9 3.2 2.1 4.3 1.4 1.3 2.3 3.8 2.9 7.8 0.4 3.2 1.5 7.6 2.4 9.7 1.6 3.6 1.7 11.4 1.3 109 -0.2 57.8 -1.2 142.2 -2.1 187.6 -1.1 59.3 -1.5 113.3 -1.2 192 0.2 60.2 0.1 134 -0.3 164 -0.6 51.3 -0.7 54.7 -2.5 58 -1.1 1.9 -2.3 6.1 -2.7 9.3 -0.4 3.2 -1.4 6.6 -2.3 7.5 -0.8 1 -1.8 3.6 -2.2 6 -0.3 2.3 -1.5 5.1 -2.5 6.3 -1 1.2 -2.2 3.8 -2.5 5.8 -0.4 2 -1.5 4.7 -2.5 6 -1.1 1.3 -1.9 2.9 -1.9 3.7 0 0.7 -1.1 2.5 -2.4 4.1 -1.3 1.5 -2.6 3.8 -3 5 -0.9 3 -10 11.9 -14.8 14.6 -8.7 4.9 -9.7 5.4 -12.2 7 -1.4 1 -3.4 1.7 -4.4 1.7 -1 0 -3.6 0.9 -5.7 2.1 -2.2 1.1 -6.5 2.2 -9.5 2.4 -3 0.3 -12.5 0.9 -21 1.5 -8.5 0.6 -20.7 1.5 -27 2.1 -12.1 1 -720.8 1.9 -742 0.9 z  m 711.5 -33 c 23.3 -0.5 38.3 -1.2 40.5 -1.9 1.9 -0.7 8.2 -1.4 14 -1.8 6.8 -0.3 12 -1.2 14.8 -2.4 2.3 -1 6.6 -2.3 9.6 -2.8 2.9 -0.5 7.3 -2.3 9.7 -3.9 5.1 -3.5 11.6 -10.5 13.2 -14.2 0.6 -1.4 1.9 -3.6 2.9 -4.9 1 -1.3 1.8 -3.6 1.8 -5.1 0 -1.6 1.1 -5.2 2.5 -8.2 1.4 -3 2.5 -7.1 2.5 -9.6 0 -2.4 0.8 -6.2 1.9 -8.5 1.8 -4.1 3.4 -19.9 6.1 -63.2 0.5 -6.6 0.9 -154.7 0.9 -329.1 0.1 -307.9 0 -317.2 -1.8 -319.5 -1 -1.3 -2.2 -3.5 -2.6 -4.9 -0.7 -2.4 -7 -10.4 -12.5 -16.1 -5 -5.1 -14.9 -12.9 -16.5 -12.9 -0.8 0 -2.3 -0.8 -3.3 -1.8 -2.8 -2.8 -10.4 -6.9 -14.2 -7.7 -1.9 -0.4 -4.8 -1.5 -6.5 -2.5 -1.6 -1 -4.9 -2 -7.2 -2.4 -2.4 -0.3 -6.2 -1.6 -8.5 -2.8 -4.2 -2.2 -4.2 -2.2 -108.3 -2.4 -97 -0.2 -151.4 -1 -210 -3.4 -13.5 -0.5 -123 -0.9 -251 -0.9 -227 0 -227 0 -232 2.4 -2.7 1.4 -5.7 2.5 -6.6 2.5 -0.9 0 -2.2 0.6 -2.8 1.4 -0.6 0.8 -2.6 2 -4.4 2.7 -3.7 1.5 -6 3.4 -12.9 10.4 -6.1 6.2 -10.4 15.1 -11.2 22.9 -0.4 3.3 -1.3 7.3 -2.1 9 -0.7 1.7 -1.9 6.4 -2.5 10.4 -0.6 4 -1.8 8.5 -2.8 10 -1.6 2.5 -1.7 12.3 -1.5 161.2 0.1 87.2 0.6 176.7 1.1 199 0.4 22.3 0.5 42.3 0.1 44.5 -0.4 2.2 -0.9 64.3 -1.1 138 -0.3 124.1 -0.2 134.4 1.4 139.5 0.9 3 2.1 10.2 2.7 16 0.8 10 2.3 15.1 6.7 23 0.7 1.4 2 3.9 2.8 5.6 3.2 6.8 23.2 21.4 29.2 21.4 1 0 2.5 0.7 3.5 1.6 0.9 0.8 4.1 2.1 7.1 2.9 2.9 0.7 7.1 2 9.3 2.9 2.2 0.8 5.8 1.6 8 1.6 2.2 0 5.8 0.8 8 1.7 2.2 0.9 6.9 1.9 10.5 2.3 9 1 665.8 1 711.5 0 z "/>
  <path d="M 527.1 841.3 c -5.1 -0.5 -10.4 -3.8 -14.6 -9 -3 -3.8 -3 -3.8 -3.6 -36.3 -0.3 -17.9 -0.3 -72.5 -0.1 -121.5 0.3 -61.6 0.1 -90.1 -0.6 -92.5 -3.5 -11.6 -6.5 -15.2 -19.3 -23.5 -3.6 -2.4 -8.6 -6.7 -11.3 -9.7 -4.2 -4.8 -5.6 -6.5 -9.8 -13.3 -0.7 -1.1 -2.3 -3.3 -3.5 -4.8 -1.3 -1.6 -2.3 -3.8 -2.3 -5 0 -1.2 -0.9 -3.7 -2 -5.5 -1.2 -2 -2.3 -6.5 -3 -11.8 -0.5 -4.7 -1.4 -9.2 -2 -9.9 -2.1 -2.5 -2.4 -15.5 -0.5 -20.5 0.9 -2.5 2.1 -7.1 2.5 -10.3 0.4 -3.2 1.5 -6.6 2.3 -7.5 0.8 -0.9 1.9 -3.8 2.5 -6.3 2.2 -8.8 12.4 -22.5 21.6 -28.9 2 -1.4 6.1 -4.4 9.2 -6.7 3 -2.3 6.5 -4.5 7.7 -4.9 1.2 -0.3 3.1 -1.4 4.2 -2.4 1.1 -1 3.6 -2.1 5.5 -2.5 1.9 -0.4 5.1 -1.7 7 -2.9 3.3 -2 4.7 -2.1 28 -2.1 23 0 24.7 0.1 28 2.1 2 1.1 4.9 2.4 6.5 2.8 1.5 0.4 4 1.6 5.3 2.7 1.4 1 3 1.9 3.6 1.9 0.6 0 3.6 1.8 6.6 4 3 2.2 7.1 4.8 9.1 5.9 4.1 2.3 13.9 11.9 13.9 13.7 0 0.6 1 2.4 2.3 4 1.2 1.6 2.7 4.7 3.4 6.9 0.6 2.2 1.9 6 2.8 8.5 2.4 6.4 1.9 57.8 -0.6 62.5 -0.9 1.7 -2 5 -2.4 7.4 -1.5 9.1 -17.8 28.6 -28.4 34.1 -2.2 1.1 -4.2 2.4 -4.6 3 -0.3 0.5 -2.5 1.8 -4.8 2.9 -2.3 1.1 -5.3 3 -6.7 4.2 -2.5 2.1 -2.5 2.1 -3 130.3 -0.5 128.1 -0.5 128.1 -3.3 132 -1.5 2.2 -4.7 5.1 -7 6.5 -4 2.5 -5 2.6 -19.2 2.7 -8.2 0.1 -17 -0.1 -19.4 -0.3 z "/>
  <path d="M 299.7 744 c -2 -1.1 -4.3 -2 -4.9 -2 -2.6 -0.1 -12.4 -7.2 -19.7 -14.4 -11.3 -11 -15.6 -16 -21.3 -25.1 -0.7 -1.1 -2.3 -3.3 -3.5 -4.8 -1.3 -1.6 -2.3 -3.5 -2.3 -4.4 0 -0.8 -1.1 -2.8 -2.5 -4.5 -1.4 -1.6 -2.5 -3.5 -2.5 -4.2 0 -0.8 -0.8 -2.4 -1.9 -3.7 -1 -1.3 -2.1 -3.8 -2.5 -5.5 -0.4 -1.8 -1.6 -4 -2.7 -5 -1 -0.9 -1.9 -2.9 -1.9 -4.4 0 -1.5 -0.9 -3.8 -1.9 -5.2 -1.1 -1.3 -2.3 -3.8 -2.7 -5.4 -0.4 -1.6 -1.4 -3.8 -2.4 -4.9 -1 -1.1 -2.1 -3.8 -2.5 -6 -0.3 -2.2 -1.5 -5.3 -2.5 -7 -0.9 -1.6 -2 -5 -2.4 -7.4 -0.4 -2.4 -1.6 -5.5 -2.6 -6.9 -1.1 -1.4 -2 -4 -2 -6.1 0 -2 -1.2 -5.8 -2.5 -8.6 -1.4 -2.7 -2.5 -6.8 -2.5 -9 0 -2.2 -0.8 -5.3 -1.7 -7 -0.9 -1.6 -2.2 -6.4 -2.9 -10.5 -0.7 -4.1 -1.9 -9.3 -2.7 -11.5 -0.8 -2.3 -1.8 -10 -2.2 -18 -0.4 -8.7 -1.3 -15.3 -2.2 -17.5 -1.1 -2.7 -1.5 -7.6 -1.4 -21.7 0.1 -10 0.6 -20.4 1.1 -23 0.5 -2.7 1.4 -14.9 2 -27.3 0.9 -17 1.6 -23.9 3 -28 1 -3 2.1 -9.5 2.5 -14.5 0.4 -5.9 1.3 -10 2.5 -12 1 -1.7 2 -5.8 2.3 -9.8 0.3 -4.4 1.1 -7.5 2.2 -8.7 0.9 -1 2 -4.5 2.4 -7.7 0.4 -3.2 1.4 -6.9 2.3 -8.3 1 -1.4 2 -4.5 2.4 -7 0.3 -2.5 1.5 -5.9 2.5 -7.5 1 -1.7 2.1 -5 2.5 -7.3 0.3 -2.2 1.5 -4.9 2.5 -5.8 1.1 -0.9 1.9 -2.7 1.9 -3.9 0 -1.1 1.1 -3.6 2.5 -5.5 1.4 -1.9 2.5 -4.4 2.5 -5.6 0 -1.2 0.8 -3.2 1.9 -4.5 1 -1.3 2.2 -3.5 2.6 -4.9 0.4 -1.4 1.6 -3.6 2.6 -4.9 1.1 -1.3 1.9 -2.9 1.9 -3.7 0 -0.7 1.1 -2.6 2.5 -4.2 1.4 -1.7 2.5 -3.3 2.5 -3.7 0 -0.5 1.1 -2.3 2.5 -4.1 1.4 -1.8 2.5 -3.6 2.5 -3.9 0 -0.4 2 -3.1 4.5 -5.9 2.5 -2.9 4.5 -5.9 4.5 -6.5 0 -0.7 1 -2.2 2.3 -3.4 1.2 -1.2 4.7 -5.1 7.7 -8.7 2.9 -3.6 6 -7 6.7 -7.6 0.7 -0.6 3 -3.6 5 -6.6 10.4 -15.2 27.2 -21 39.7 -13.8 2.8 1.6 6.2 4.6 7.6 6.6 2.1 3.1 2.4 4.7 2.3 11.8 -0.1 11.4 -2.7 16 -17.3 30.7 -6.3 6.3 -12.3 12.6 -13.3 14 -1 1.3 -3.1 4.1 -4.7 6.3 -1.7 2.1 -3 4.4 -3 5.1 0 0.6 -0.9 2 -1.9 2.9 -1.1 1 -2.2 2.9 -2.6 4.3 -0.3 1.4 -2.6 5 -5.1 8 -2.4 3 -4.4 6.5 -4.4 7.7 0 1.3 -0.8 3.1 -1.9 4 -1 0.9 -2.1 3.1 -2.5 4.7 -0.3 1.7 -1.5 4.2 -2.5 5.6 -1.1 1.3 -2.3 4.4 -2.7 6.8 -0.3 2.5 -1.5 5.4 -2.5 6.6 -1 1.2 -1.9 2.8 -1.9 3.6 0 0.7 -1.1 4 -2.5 7.3 -1.4 3.3 -2.5 7.2 -2.5 8.7 0 1.6 -0.9 4.6 -2.1 6.7 -1.1 2.2 -2.3 6.4 -2.6 9.5 -0.3 3.1 -1.2 6.4 -2.1 7.3 -0.9 1.1 -1.8 5.4 -2.4 11.5 -0.5 5.9 -1.5 10.7 -2.5 12.2 -1.2 1.9 -1.9 7.8 -3.1 24.5 -1.7 25.7 -1.7 25.8 -0.4 65.1 0.9 30.5 1.4 35.4 3.8 39 0.7 1.1 1.6 5.4 2 9.5 0.3 4.1 1.2 8.5 2 9.7 0.7 1.1 1.8 4.3 2.5 7 0.6 2.6 1.8 5.8 2.5 7 0.7 1.1 1.9 4.3 2.5 7 0.7 2.6 1.6 5.3 2 5.9 0.5 0.6 1.6 3 2.4 5.4 0.9 2.4 2.2 5.1 2.9 6 0.8 0.8 1.7 3 2.1 4.9 0.4 1.8 1.5 4.8 2.5 6.5 1 1.7 2.1 4.7 2.5 6.6 0.4 1.9 1.6 4.6 2.6 5.9 1.1 1.3 1.9 3.4 1.9 4.6 0 1.2 0.8 3.3 1.9 4.6 1 1.3 2.2 3.5 2.6 4.9 0.4 1.4 1.5 3.4 2.5 4.5 0.9 1.1 2 3.1 2.3 4.5 1 4.1 11.6 15.6 32.6 35.3 3.5 3.3 6.1 6.6 6.1 7.7 0 1.1 0.9 3.7 2 5.7 2.6 5 2.6 11.5 -0.2 17 -1.9 3.8 -3.2 4.9 -8.7 7.4 -8 3.6 -16.6 4 -22.4 0.9 z "/>
  <path d="M 767.2 741.2 c -5.9 -5.2 -7.2 -8.5 -7.1 -18.2 0 -10.1 0.9 -12.4 8.1 -20.2 3.6 -4 9.4 -10.7 12.9 -14.8 3.4 -4.1 6.8 -7.9 7.4 -8.5 2.5 -2.1 10.5 -12.6 10.5 -13.8 0 -0.7 1.1 -2.8 2.5 -4.7 1.4 -1.9 2.5 -4.2 2.5 -5.3 0 -1.1 1.1 -3.2 2.5 -4.9 1.4 -1.6 2.5 -3.8 2.5 -4.9 0 -1.1 1.1 -4.1 2.5 -6.7 1.4 -2.6 2.5 -5.9 2.5 -7.3 0 -1.4 0.9 -3.4 2 -4.4 1.1 -1 2 -2.9 2 -4.2 0 -1.3 1.1 -4.5 2.5 -7.1 1.4 -2.6 2.5 -6.1 2.5 -7.8 0 -1.7 0.9 -4.3 2.1 -5.7 1.1 -1.5 2.4 -4.9 2.8 -7.7 0.4 -2.8 1.5 -5.8 2.4 -6.8 1 -1 1.9 -4.6 2.3 -8.7 0.3 -3.9 1.4 -8.3 2.4 -10 1.4 -2.3 1.9 -6.3 2.5 -17.5 0.3 -8 1.3 -18.1 2.2 -22.5 1.3 -6.2 1.7 -14.4 1.7 -36 0.1 -24.4 -0.1 -28.5 -1.6 -32.2 -1.1 -2.7 -2 -8.5 -2.4 -15.5 -0.5 -8 -1.2 -12.2 -2.4 -14.3 -1 -1.6 -2 -6.1 -2.3 -9.9 -0.4 -3.8 -1.3 -7.9 -2.2 -9.2 -0.8 -1.3 -2 -5.6 -2.5 -9.6 -0.6 -3.9 -1.7 -7.9 -2.5 -8.8 -0.8 -0.9 -1.9 -4.5 -2.4 -8.1 -0.5 -3.6 -1.8 -8.1 -3 -10 -1.1 -1.9 -2.1 -4.8 -2.1 -6.5 0 -1.7 -0.8 -3.8 -1.9 -4.8 -1.1 -1 -2.1 -3.7 -2.5 -6.5 -0.4 -2.9 -1.4 -5.5 -2.6 -6.6 -1.1 -1 -2 -2.8 -2 -4.1 0 -1.2 -1.1 -3.6 -2.5 -5.2 -1.4 -1.7 -2.5 -3.5 -2.5 -4.2 0 -1.6 -6.1 -11 -7.1 -11 -0.5 0 -1.7 -1.7 -2.8 -3.8 -1.1 -2 -5.7 -8.3 -10.3 -13.9 -16.8 -20.7 -22.8 -28.5 -22.8 -30.1 0 -0.9 -1 -2.6 -2.2 -4 -2 -2.1 -2.3 -3.4 -2.3 -11 0 -8.4 0.1 -8.9 3.3 -12.9 6.8 -8.4 19.1 -11.8 27.2 -7.5 1.9 1.1 4.8 2.2 6.5 2.6 3 0.8 11.8 7.7 16.6 13.1 1.5 1.7 4 4.4 5.5 6.2 5 5.5 5.9 6.6 7.1 9.4 0.6 1.5 1.9 3.6 2.7 4.6 5.2 5.9 6.6 7.7 7.2 9.7 0.6 1.9 2.4 4.5 7.4 10.4 1.1 1.3 2 3.2 2 4.1 0 1 0.9 2.6 2 3.6 1.1 1 2.2 2.7 2.6 3.9 0.4 1.1 1.4 3.2 2.4 4.6 5.4 8 7 10.8 7 12.1 0 0.9 0.9 2.4 2 3.4 1.1 1 2.3 3.4 2.6 5.4 0.4 2 1.5 4.8 2.5 6.2 1 1.4 2.1 4.5 2.5 6.7 0.4 2.3 1.4 5.1 2.4 6.2 1 1.1 2 4.3 2.4 7.1 0.4 2.8 1.4 6.2 2.2 7.4 0.9 1.3 2 5.7 2.6 9.7 0.5 4 1.6 8 2.3 8.8 0.7 0.8 1.8 4.7 2.3 8.6 0.6 3.9 1.7 8.5 2.6 10.1 0.8 1.7 1.8 7.1 2.1 12.4 0.4 5.2 1.5 11.4 2.5 13.9 1.3 3.3 1.9 8.7 2.4 20.5 0.4 8.8 1.3 18.5 2.1 21.5 2.1 7.9 2.1 62.5 0.1 69.5 -0.8 2.6 -1.8 9.5 -2.2 15.4 -0.4 7.3 -1.2 11.5 -2.4 13.6 -1 1.7 -2.1 6.2 -2.4 10.1 -0.4 4 -1.6 8.9 -2.6 11 -1.2 2.3 -2 5.8 -2 9 0 3.7 -0.6 5.9 -2 7.7 -1.2 1.5 -2.3 4.9 -2.7 7.9 -0.3 2.9 -1.4 6.2 -2.3 7.3 -1 1.1 -2.1 4.3 -2.5 7 -0.4 2.8 -1.5 5.9 -2.5 7 -1 1.1 -2 3.6 -2.4 5.6 -0.4 2.1 -1.3 4.2 -2.1 4.9 -0.8 0.6 -1.9 3.6 -2.6 6.7 -0.7 3 -1.8 5.7 -2.5 6 -0.7 0.3 -1.8 2.1 -2.5 4.1 -0.6 2.1 -1.7 4.3 -2.3 5.1 -0.6 0.8 -2.9 4.5 -5.1 8.2 -5.3 8.9 -11 17.3 -15.7 23 -2.1 2.6 -5.5 7.1 -7.5 10 -2 3 -4.6 6.3 -5.7 7.5 -1.2 1.1 -5.6 5.7 -9.9 10.2 -4.3 4.4 -9 8.3 -10.5 8.7 -1.4 0.3 -3.7 1.5 -5 2.6 -2.1 1.6 -4.1 1.9 -12.1 1.9 -9.6 0 -9.6 0 -14.9 -4.8 z "/>
  <path d="M 384.2 669 c -4.9 -2 -20.3 -18.7 -25.8 -28.2 -0.6 -1 -2.1 -2.9 -3.3 -4.2 -1.1 -1.2 -2.1 -3.2 -2.1 -4.4 0 -1.1 -1.1 -3.3 -2.5 -4.8 -1.4 -1.5 -2.5 -3.6 -2.5 -4.7 0 -1 -1.1 -3.2 -2.5 -4.9 -1.4 -1.6 -2.5 -3.6 -2.5 -4.5 0 -0.8 -0.9 -2.6 -2 -4 -1.1 -1.4 -2.2 -4 -2.6 -5.8 -0.3 -1.9 -1.5 -4.1 -2.5 -5.1 -1 -0.9 -1.9 -2.8 -1.9 -4.2 0 -1.3 -0.9 -4 -2.1 -5.8 -1.1 -1.9 -2.5 -6.3 -3 -9.9 -0.5 -3.6 -1.6 -7.6 -2.4 -8.8 -0.8 -1.3 -1.7 -6 -2.1 -11.2 -0.3 -5 -1.5 -11.9 -2.7 -15.5 -2.1 -6.2 -2.2 -8.2 -2.2 -46 0 -36.3 0.1 -39.9 1.9 -44 1 -2.5 2.2 -8 2.7 -12.4 0.5 -4.7 1.4 -8.5 2.4 -9.6 0.8 -0.9 1.8 -4.1 2.2 -7.1 0.3 -3 1.6 -7.2 2.9 -9.5 1.3 -2.2 2.4 -5.2 2.4 -6.6 0 -1.4 0.9 -3.3 2 -4.3 1.1 -1 2 -2.6 2 -3.5 0 -0.9 1.1 -3.7 2.4 -6.2 1.3 -2.4 2.7 -5.5 3.1 -6.9 0.4 -1.3 1.6 -3.5 2.6 -4.8 1.1 -1.3 1.9 -3.1 1.9 -4.1 0 -0.9 0.9 -2.5 1.9 -3.4 1.1 -1 2.2 -2.9 2.6 -4.4 0.3 -1.4 1.7 -3.9 3.1 -5.5 1.3 -1.6 2.4 -3.4 2.4 -4.1 0 -3 19.6 -23 23.5 -24 1.7 -0.4 3.8 -1.4 4.7 -2.3 1.1 -1 3.9 -1.5 8.5 -1.6 6.2 -0.1 7.3 0.2 10.6 2.9 2.2 1.7 4.1 4.3 4.7 6.4 0.6 1.9 1.7 4.4 2.5 5.4 2.2 2.8 1.8 7.4 -1 13.1 -1.4 2.8 -2.5 5.5 -2.5 6 0 0.6 -2.8 4.2 -6.3 8 -3.5 3.9 -8.1 9.8 -10.2 13.3 -2.1 3.4 -4.2 6.2 -4.6 6.2 -0.5 0 -1.4 1.8 -2 4 -0.7 2.2 -2 4.7 -3.1 5.6 -1 1 -1.8 2.7 -1.8 3.9 0 1.2 -0.9 3.4 -2 4.8 -1.1 1.4 -2.3 4 -2.6 5.9 -0.4 1.8 -1.5 4.7 -2.5 6.3 -1 1.7 -2.1 5.5 -2.4 8.5 -0.4 3 -1.5 7.3 -2.5 9.5 -1.1 2.4 -2.1 7.8 -2.4 13.4 -0.4 5.2 -1.4 11 -2.3 13 -1.9 4.2 -2.1 24.6 -0.3 32.6 0.6 2.6 1.5 14.5 2.1 26.4 0.7 16.7 1.3 22.1 2.5 23.9 0.9 1.4 2 5.6 2.5 9.4 0.5 3.9 1.7 8.4 2.8 10.2 1 1.7 2.1 5 2.4 7.4 0.3 2.4 1.2 5.1 2 6 0.9 0.9 1.9 3.1 2.2 4.7 0.7 2.6 1.6 4.9 6.4 15.5 3 6.5 8 14.8 10.9 18 1.5 1.8 9.2 13.3 10.8 16.4 4.2 7.7 4.3 8.8 2 16.7 -1.5 5.4 -3 8.4 -5.4 10.7 -3.1 3.1 -3.6 3.2 -11 3.1 -4.2 0 -8.7 -0.4 -10 -0.9 z "/>
  <path d="M 678.1 665.9 c -2.8 -2.3 -5.6 -4.9 -6.1 -5.9 -0.6 -1 -1 -6.7 -1 -12.7 0 -10.8 0 -10.8 4 -16.3 2.2 -3 4.5 -6.6 5.2 -8 0.7 -1.4 2.2 -3.4 3.3 -4.6 6.3 -6.5 10.8 -12.6 16.1 -21.9 0.9 -1.6 2.3 -3.5 3 -4.3 0.8 -0.7 1.4 -2.1 1.4 -3 0 -1 1.1 -3.8 2.5 -6.4 1.4 -2.6 2.5 -5.8 2.5 -7.1 0 -1.3 1 -3.6 2.1 -5.1 1.3 -1.6 2.4 -5 2.8 -8.4 0.4 -3.1 1.5 -6.9 2.4 -8.3 2.5 -3.8 3.8 -35.6 2.8 -69.4 -0.7 -24.5 -1 -27.4 -2.9 -31.5 -1.2 -2.6 -2.2 -6.5 -2.2 -9.2 0 -3.4 -0.6 -5.2 -2 -6.6 -1.2 -1.1 -2.4 -4 -2.9 -6.9 -0.4 -2.8 -1.7 -6.3 -2.9 -7.8 -1.2 -1.5 -2.2 -3.7 -2.2 -4.7 0 -1.1 -1.1 -3.3 -2.5 -5 -1.4 -1.6 -2.5 -3.8 -2.5 -4.8 0 -1 -0.5 -2.2 -1.1 -2.6 -0.6 -0.3 -2 -2.5 -3.1 -4.8 -1 -2.2 -3.2 -6.1 -4.8 -8.6 -1.7 -2.5 -3.7 -6 -4.5 -7.8 -0.9 -1.8 -2.5 -4.2 -3.6 -5.5 -1.1 -1.2 -2.6 -2.9 -3.4 -3.8 -0.8 -0.8 -2.8 -3.5 -4.5 -6 -2.8 -4.1 -3 -5 -3 -13.7 0 -9.3 0 -9.3 3.9 -13.5 4 -4.2 4 -4.2 15.6 -4.5 10.4 -0.3 11.9 -0.2 13.8 1.5 1.2 1.1 3.4 2.7 4.9 3.6 2.3 1.4 5.3 4.7 16.1 17.7 1.8 2.1 6.2 9 7.8 12.1 2 3.8 9.4 15 11.8 17.8 1.2 1.3 2.1 3.4 2.1 4.6 0 1.2 0.9 3 1.9 3.9 1 0.9 2.2 3.6 2.5 5.9 0.4 2.3 1.5 5.6 2.6 7.2 1.1 1.7 2 4.1 2 5.5 0 1.4 1 4.5 2.1 7 1.1 2.5 2.4 8.2 2.9 12.7 0.5 4.5 1.6 9.3 2.5 10.6 1.1 1.7 1.9 6.4 2.5 13.9 0.5 6.2 1.6 13.1 2.4 15.3 1.2 3.2 1.5 9.6 1.6 30.7 0 23.7 -0.2 27.3 -1.9 31.5 -1.2 3.2 -2 8.7 -2.4 16.5 -0.5 9.2 -1 12.3 -2.7 15 -1.1 1.8 -2 5.1 -2 7.3 0 2.2 -1.2 6.3 -2.5 9 -1.4 2.8 -2.5 6.3 -2.5 7.8 0 1.6 -0.9 4 -2 5.4 -1.1 1.4 -2 3.1 -2 3.7 0 0.7 -1.1 2.7 -2.5 4.6 -1.4 1.9 -2.5 4.2 -2.5 5.2 0 1 -1.1 2.8 -2.5 4 -1.4 1.2 -2.5 2.6 -2.5 3.2 0 1.3 -4.5 8 -9.6 14.1 -2.2 2.8 -4.4 5.9 -4.8 7.1 -0.8 2.5 -16.5 18.4 -18.2 18.4 -0.7 0 -2.5 1.1 -4.1 2.4 -5.4 4.4 -12.6 7.6 -17.4 7.6 -3.9 0 -5.4 -0.6 -9.8 -4.1 z "/>
 </g>
</svg>