<?xml version="1.0" encoding="UTF-8"?>
<!DOCTYPE svg PUBLIC "-//W3C//DTD SVG 1.1//EN" "http://www.w3.org/Graphics/SVG/1.1/DTD/svg11.dtd">
<svg xmlns="http://www.w3.org/2000/svg" version="1.1" width="4500px" height="4500px" style="shape-rendering:geometricPrecision; text-rendering:geometricPrecision; image-rendering:optimizeQuality; fill-rule:evenodd; clip-rule:evenodd" xmlns:xlink="http://www.w3.org/1999/xlink">
<g><path style="opacity:0.765" fill="#fefffe" d="M 457.5,278.5 C 1674.83,278.5 2892.17,278.5 4109.5,278.5C 4110.63,283.818 4111.63,289.152 4112.5,294.5C 4110.06,294.354 4109.39,295.187 4110.5,297C 4113.19,297.392 4115.85,297.892 4118.5,298.5C 4121.96,297.569 4125.29,297.236 4128.5,297.5C 4143.47,298.319 4158.47,298.985 4173.5,299.5C 4174.11,305.881 4174.11,312.215 4173.5,318.5C 4180.27,319.306 4187.1,319.306 4194,318.5C 4197.53,320.781 4201.36,321.114 4205.5,319.5C 4208.73,320.658 4211.56,322.325 4214,324.5C 4214.31,323.692 4214.81,323.025 4215.5,322.5C 4217.94,326.916 4217.94,331.249 4215.5,335.5C 4216.85,336.524 4217.52,337.857 4217.5,339.5C 4223.38,340.01 4229.22,340.01 4235,339.5C 4235.95,339.905 4236.61,340.572 4237,341.5C 4237.31,340.692 4237.81,340.025 4238.5,339.5C 4243.26,341.37 4248.26,342.037 4253.5,341.5C 4253.5,342.833 4253.5,344.167 4253.5,345.5C 4254.83,345.5 4256.17,345.5 4257.5,345.5C 4257.78,350.641 4258.11,355.641 4258.5,360.5C 4264.59,361.095 4270.59,362.095 4276.5,363.5C 4277.09,363.291 4277.59,362.957 4278,362.5C 4279.09,366.71 4280.26,370.876 4281.5,375C 4281.6,377.145 4280.94,378.979 4279.5,380.5C 4279.71,381.086 4280.04,381.586 4280.5,382C 4286.36,382.279 4292.19,382.779 4298,383.5C 4300.54,384.407 4302.04,386.241 4302.5,389C 4305.15,389.497 4307.81,389.664 4310.5,389.5C 4310.5,390.833 4310.5,392.167 4310.5,393.5C 4311.83,393.5 4313.17,393.5 4314.5,393.5C 4314.5,395.833 4314.5,398.167 4314.5,400.5C 4312.17,400.5 4309.83,400.5 4307.5,400.5C 4307.81,398.076 4307.47,395.743 4306.5,393.5C 4305.69,396.401 4304.69,399.234 4303.5,402C 4303.64,402.772 4303.98,403.439 4304.5,404C 4307.35,402.594 4310.35,402.094 4313.5,402.5C 4314.19,403.025 4314.69,403.692 4315,404.5C 4315.56,403.978 4316.23,403.645 4317,403.5C 4319,405.751 4321.5,406.751 4324.5,406.5C 4324.6,412.438 4324.27,418.105 4323.5,423.5C 4326.72,424.397 4330.05,424.397 4333.5,423.5C 4336.63,425.686 4339.96,426.52 4343.5,426C 4344.8,430.272 4344.8,434.772 4343.5,439.5C 4343.55,442.322 4344.22,444.989 4345.5,447.5C 4351.55,446.226 4357.89,446.226 4364.5,447.5C 4365.31,461.83 4366.15,476.163 4367,490.5C 4374.22,488.718 4381.06,489.718 4387.5,493.5C 4386.84,499.572 4387.51,505.572 4389.5,511.5C 4390,511.833 4390.5,512.167 4391,512.5C 4393.6,510.854 4396.43,510.187 4399.5,510.5C 4399.5,511.5 4399.5,512.5 4399.5,513.5C 4401.5,513.833 4403.5,514.167 4405.5,514.5C 4405.21,516.288 4405.55,517.955 4406.5,519.5C 4407.95,516.859 4408.62,517.192 4408.5,520.5C 4407.68,522.788 4407.01,525.122 4406.5,527.5C 4408.21,543.098 4409.04,558.765 4409,574.5C 4412.07,575.662 4415.4,575.662 4419,574.5C 4421.49,575.336 4423.99,576.002 4426.5,576.5C 4428.54,581.711 4428.87,587.045 4427.5,592.5C 4428.3,608.808 4428.8,625.142 4429,641.5C 4429.33,643.5 4429.67,645.5 4430,647.5C 4430.41,647.957 4430.91,648.291 4431.5,648.5C 4432.42,645.095 4433.42,641.761 4434.5,638.5C 4436.17,638.5 4437.83,638.5 4439.5,638.5C 4439.5,639.833 4439.5,641.167 4439.5,642.5C 4441.17,642.5 4442.83,642.5 4444.5,642.5C 4444.5,644.167 4444.5,645.833 4444.5,647.5C 4445.83,647.5 4447.17,647.5 4448.5,647.5C 4448.5,678.833 4448.5,710.167 4448.5,741.5C 4447.17,741.5 4445.83,741.5 4444.5,741.5C 4444.5,745.5 4444.5,749.5 4444.5,753.5C 4442.83,753.5 4441.17,753.5 4439.5,753.5C 4439.5,755.167 4439.5,756.833 4439.5,758.5C 4437.83,758.5 4436.17,758.5 4434.5,758.5C 4433.5,751.195 4432.17,743.862 4430.5,736.5C 4429.67,742.138 4429.17,747.804 4429,753.5C 4428.64,822.011 4428.47,890.511 4428.5,959C 4428.87,970.887 4429.7,982.721 4431,994.5C 4435.44,974.655 4435.61,954.655 4431.5,934.5C 4431.77,929.985 4432.77,925.651 4434.5,921.5C 4433.42,919.125 4433.42,916.792 4434.5,914.5C 4435.45,916.045 4435.79,917.712 4435.5,919.5C 4438.5,919.5 4441.5,919.5 4444.5,919.5C 4444.5,923.5 4444.5,927.5 4444.5,931.5C 4445.83,931.5 4447.17,931.5 4448.5,931.5C 4448.5,934.833 4448.5,938.167 4448.5,941.5C 4447.17,941.5 4445.83,941.5 4444.5,941.5C 4444.5,945.833 4444.5,950.167 4444.5,954.5C 4442.83,954.5 4441.17,954.5 4439.5,954.5C 4439.5,957.5 4439.5,960.5 4439.5,963.5C 4441.17,963.5 4442.83,963.5 4444.5,963.5C 4444.5,972.5 4444.5,981.5 4444.5,990.5C 4445.83,990.5 4447.17,990.5 4448.5,990.5C 4448.5,996.167 4448.5,1001.83 4448.5,1007.5C 4447.17,1007.5 4445.83,1007.5 4444.5,1007.5C 4444.5,1034.5 4444.5,1061.5 4444.5,1088.5C 4445.83,1088.5 4447.17,1088.5 4448.5,1088.5C 4448.5,1103.17 4448.5,1117.83 4448.5,1132.5C 4447.17,1132.5 4445.83,1132.5 4444.5,1132.5C 4444.5,1141.5 4444.5,1150.5 4444.5,1159.5C 4442.83,1159.5 4441.17,1159.5 4439.5,1159.5C 4439.5,1170.17 4439.5,1180.83 4439.5,1191.5C 4438.17,1191.5 4436.83,1191.5 4435.5,1191.5C 4434.97,1196.8 4434.13,1196.8 4433,1191.5C 4432.5,1171.84 4432.33,1152.17 4432.5,1132.5C 4431.5,1132.5 4430.5,1132.5 4429.5,1132.5C 4428.72,1453.03 4428.39,1773.53 4428.5,2094C 4428.81,2102.56 4429.64,2111.06 4431,2119.5C 4432.22,2113.9 4432.72,2108.23 4432.5,2102.5C 4434.83,2102.5 4437.17,2102.5 4439.5,2102.5C 4439.5,2103.83 4439.5,2105.17 4439.5,2106.5C 4441.17,2106.5 4442.83,2106.5 4444.5,2106.5C 4444.5,2109.17 4444.5,2111.83 4444.5,2114.5C 4445.83,2114.5 4447.17,2114.5 4448.5,2114.5C 4448.5,2119.5 4448.5,2124.5 4448.5,2129.5C 4447.17,2129.5 4445.83,2129.5 4444.5,2129.5C 4444.5,2138.5 4444.5,2147.5 4444.5,2156.5C 4445.83,2156.5 4447.17,2156.5 4448.5,2156.5C 4448.5,2163.5 4448.5,2170.5 4448.5,2177.5C 4447.17,2177.5 4445.83,2177.5 4444.5,2177.5C 4444.5,2187.83 4444.5,2198.17 4444.5,2208.5C 4445.83,2208.5 4447.17,2208.5 4448.5,2208.5C 4448.5,2220.5 4448.5,2232.5 4448.5,2244.5C 4447.17,2244.5 4445.83,2244.5 4444.5,2244.5C 4444.5,2257.83 4444.5,2271.17 4444.5,2284.5C 4442.83,2284.5 4441.17,2284.5 4439.5,2284.5C 4439.5,2296.17 4439.5,2307.83 4439.5,2319.5C 4441.17,2319.5 4442.83,2319.5 4444.5,2319.5C 4444.5,2336.17 4444.5,2352.83 4444.5,2369.5C 4442.83,2369.5 4441.17,2369.5 4439.5,2369.5C 4439.5,2372.5 4439.5,2375.5 4439.5,2378.5C 4438.17,2378.5 4436.83,2378.5 4435.5,2378.5C 4434.97,2383.8 4434.13,2383.8 4433,2378.5C 4432.5,2333.83 4432.33,2289.17 4432.5,2244.5C 4431.5,2244.5 4430.5,2244.5 4429.5,2244.5C 4428.71,2535.16 4428.04,2825.82 4427.5,3116.5C 4427.72,3330.16 4428.05,3543.82 4428.5,3757.5C 4428.36,3768.23 4427.53,3778.9 4426,3789.5C 4423.38,3792.06 4420.21,3793.39 4416.5,3793.5C 4416.72,3794.68 4416.39,3795.68 4415.5,3796.5C 4412.43,3792.39 4410.43,3792.89 4409.5,3798C 4408.88,3815.49 4408.21,3832.99 4407.5,3850.5C 4406.81,3852.27 4405.98,3853.94 4405,3855.5C 4404.5,3861.49 4404.33,3867.49 4404.5,3873.5C 4402.83,3873.5 4401.17,3873.5 4399.5,3873.5C 4399.5,3874.83 4399.5,3876.17 4399.5,3877.5C 4397.17,3877.5 4394.83,3877.5 4392.5,3877.5C 4392.5,3876.17 4392.5,3874.83 4392.5,3873.5C 4391.5,3873.5 4390.5,3873.5 4389.5,3873.5C 4387.45,3881.64 4386.11,3889.97 4385.5,3898.5C 4383.42,3899.04 4381.42,3899.88 4379.5,3901C 4375.18,3901.5 4370.85,3901.67 4366.5,3901.5C 4366.48,3914.74 4365.48,3927.74 4363.5,3940.5C 4362.11,3939.36 4360.78,3939.36 4359.5,3940.5C 4359.71,3941.09 4360.04,3941.59 4360.5,3942C 4356.58,3942.01 4352.92,3942.85 4349.5,3944.5C 4348.61,3943.68 4348.28,3942.68 4348.5,3941.5C 4347.17,3941.5 4345.83,3941.5 4344.5,3941.5C 4344.04,3947.72 4344.04,3953.89 4344.5,3960C 4344.37,3961.06 4343.87,3961.89 4343,3962.5C 4342.64,3969.85 4342.14,3977.18 4341.5,3984.5C 4338.53,3984.89 4335.87,3984.22 4333.5,3982.5C 4333,3983.6 4332.67,3984.6 4332.5,3985.5C 4323.76,3983.59 4321.1,3986.93 4324.5,3995.5C 4323.21,3999.04 4321.54,4002.38 4319.5,4005.5C 4317.23,4005.97 4315.23,4006.97 4313.5,4008.5C 4310.29,4008.18 4306.95,4008.18 4303.5,4008.5C 4303.05,4015.19 4302.39,4021.86 4301.5,4028.5C 4295.36,4029.43 4289.03,4029.6 4282.5,4029C 4282.14,4033.89 4281.14,4038.56 4279.5,4043C 4279.96,4043.41 4280.29,4043.91 4280.5,4044.5C 4279.47,4045.7 4278.64,4047.03 4278,4048.5C 4277.44,4047.98 4276.77,4047.64 4276,4047.5C 4270.43,4049.06 4264.76,4050.06 4259,4050.5C 4259.12,4056.7 4258.29,4062.86 4256.5,4069C 4254.57,4069.25 4252.73,4069.75 4251,4070.5C 4249.2,4070.28 4247.37,4069.95 4245.5,4069.5C 4242.43,4070.4 4239.43,4071.4 4236.5,4072.5C 4236.9,4077.48 4235.9,4082.15 4233.5,4086.5C 4232.83,4086.17 4232.17,4085.83 4231.5,4085.5C 4230.55,4087.05 4230.21,4088.71 4230.5,4090.5C 4226.65,4089.97 4223.15,4090.64 4220,4092.5C 4219.69,4091.69 4219.19,4091.03 4218.5,4090.5C 4210.98,4092.11 4203.31,4093.28 4195.5,4094C 4195.04,4094.41 4194.71,4094.91 4194.5,4095.5C 4195.59,4097.18 4196.26,4099.02 4196.5,4101C 4195.03,4105.03 4194.19,4109.2 4194,4113.5C 4192.77,4112.89 4191.44,4112.56 4190,4112.5C 4184.18,4113.17 4178.35,4113.67 4172.5,4114C 4172.37,4117.95 4172.37,4122.12 4172.5,4126.5C 4170.83,4126.5 4169.17,4126.5 4167.5,4126.5C 4167.5,4127.83 4167.5,4129.17 4167.5,4130.5C 4156.22,4132.33 4144.89,4133.83 4133.5,4135C 4132.74,4140.93 4132.4,4147.09 4132.5,4153.5C 4128.54,4153.01 4124.88,4153.68 4121.5,4155.5C 4119.56,4154.9 4117.56,4154.57 4115.5,4154.5C 4105.15,4155.08 4094.82,4155.75 4084.5,4156.5C 4083.07,4156.73 4082.57,4157.4 4083,4158.5C 4085.2,4159.4 4087.37,4160.4 4089.5,4161.5C 4088.59,4164.42 4088.26,4167.42 4088.5,4170.5C 4086.83,4170.5 4085.17,4170.5 4083.5,4170.5C 4083.5,4171.83 4083.5,4173.17 4083.5,4174.5C 4076.38,4174.35 4069.38,4175.18 4062.5,4177C 4049.81,4177.2 4037.14,4177.7 4024.5,4178.5C 4023.83,4178.83 4023.17,4179.17 4022.5,4179.5C 4023.28,4181.36 4024.61,4182.69 4026.5,4183.5C 4025.58,4186.76 4025.25,4190.09 4025.5,4193.5C 4022.52,4193.96 4019.52,4194.3 4016.5,4194.5C 4016.5,4195.5 4016.5,4196.5 4016.5,4197.5C 4012.45,4197.7 4008.45,4197.36 4004.5,4196.5C 4002.16,4196.66 4000.33,4197.66 3999,4199.5C 3997.16,4197.04 3995.16,4197.04 3993,4199.5C 3991.39,4197.02 3989.89,4197.02 3988.5,4199.5C 3986.89,4198.92 3985.23,4198.59 3983.5,4198.5C 3976.88,4199.64 3970.21,4200.3 3963.5,4200.5C 3955.84,4199.76 3948.17,4199.6 3940.5,4200C 3938.71,4200.2 3937.38,4201.03 3936.5,4202.5C 3940.28,4204.56 3941.61,4207.56 3940.5,4211.5C 3938.11,4210.48 3937.11,4211.48 3937.5,4214.5C 3931.28,4216.01 3924.95,4216.67 3918.5,4216.5C 3918.5,4217.83 3918.5,4219.17 3918.5,4220.5C 2762.17,4220.5 1605.83,4220.5 449.5,4220.5C 449.5,4219.17 449.5,4217.83 449.5,4216.5C 444.985,4216.73 440.652,4216.06 436.5,4214.5C 436.573,4211.12 435.573,4208.12 433.5,4205.5C 434.325,4204.61 435.325,4204.28 436.5,4204.5C 436.863,4202.09 435.863,4200.59 433.5,4200C 420.423,4198.92 407.589,4198.76 395,4199.5C 387.992,4197.06 380.825,4196.39 373.5,4197.5C 373.167,4194.83 372.833,4192.17 372.5,4189.5C 371.5,4189.5 370.5,4189.5 369.5,4189.5C 369.5,4187.17 369.5,4184.83 369.5,4182.5C 370.5,4182.5 371.5,4182.5 372.5,4182.5C 372.5,4181.17 372.5,4179.83 372.5,4178.5C 361.022,4177.77 349.522,4177.1 338,4176.5C 335.049,4176.12 332.215,4175.45 329.5,4174.5C 328.996,4170.82 328.33,4167.15 327.5,4163.5C 327.594,4161.31 328.261,4159.31 329.5,4157.5C 329.291,4156.91 328.957,4156.41 328.5,4156C 317.987,4155.72 307.487,4155.22 297,4154.5C 293.847,4155.63 291.014,4155.3 288.5,4153.5C 287.611,4150.72 286.444,4148.05 285,4145.5C 283.996,4142.01 284.496,4138.84 286.5,4136C 279.668,4134.98 272.835,4133.82 266,4132.5C 264.829,4131.66 263.662,4130.83 262.5,4130C 263.731,4128.82 263.731,4127.65 262.5,4126.5C 261.571,4127.69 261.238,4129.02 261.5,4130.5C 257.167,4130.5 252.833,4130.5 248.5,4130.5C 248.5,4127.83 248.5,4125.17 248.5,4122.5C 247.167,4122.5 245.833,4122.5 244.5,4122.5C 244.5,4119.5 244.5,4116.5 244.5,4113.5C 238.171,4113.1 231.838,4112.77 225.5,4112.5C 225.5,4111.5 225.5,4110.5 225.5,4109.5C 224.5,4109.5 223.5,4109.5 222.5,4109.5C 222.26,4106.42 222.593,4103.42 223.5,4100.5C 221.777,4098.13 221.11,4095.47 221.5,4092.5C 216.18,4092.96 211.18,4091.96 206.5,4089.5C 204.877,4090.49 203.877,4089.82 203.5,4087.5C 202.675,4086.61 201.675,4086.28 200.5,4086.5C 200.76,4081.4 200.76,4076.4 200.5,4071.5C 193.979,4070.39 187.646,4069.55 181.5,4069C 180.687,4062.58 180.187,4056.08 180,4049.5C 177.615,4048.85 175.115,4048.85 172.5,4049.5C 170.392,4049.14 168.392,4048.47 166.5,4047.5C 165.558,4047.61 164.725,4047.94 164,4048.5C 162.97,4046.22 161.47,4045.56 159.5,4046.5C 157.379,4041.01 156.045,4035.01 155.5,4028.5C 154.571,4029.69 154.238,4031.02 154.5,4032.5C 153.167,4032.5 151.833,4032.5 150.5,4032.5C 150.5,4031.17 150.5,4029.83 150.5,4028.5C 147.5,4028.5 144.5,4028.5 141.5,4028.5C 141.5,4027.17 141.5,4025.83 141.5,4024.5C 140.167,4024.5 138.833,4024.5 137.5,4024.5C 137.44,4021.98 138.106,4019.65 139.5,4017.5C 137.906,4011.57 136.572,4005.57 135.5,3999.5C 136.411,3995.69 136.577,3992.02 136,3988.5C 135.161,3987.38 133.994,3986.71 132.5,3986.5C 127.266,3985.97 122.1,3985.3 117,3984.5C 116.066,3978.04 115.566,3971.37 115.5,3964.5C 113.549,3964.77 112.049,3964.11 111,3962.5C 109.667,3963.17 108.333,3963.83 107,3964.5C 104.208,3962.61 101.041,3961.61 97.5,3961.5C 97.2853,3955.17 96.2853,3949 94.5,3943C 95.622,3935.09 95.122,3927.25 93,3919.5C 90.9177,3923.15 89.9177,3927.15 90,3931.5C 89.5045,3929.53 89.3379,3927.53 89.5,3925.5C 87.5,3925.5 85.5,3925.5 83.5,3925.5C 83.5,3924.5 83.5,3923.5 83.5,3922.5C 80.5176,3922.04 77.5176,3921.7 74.5,3921.5C 74.8297,3918.84 75.163,3916.18 75.5,3913.5C 73.7453,3902 72.5786,3890.33 72,3878.5C 70.6439,3877.62 69.1439,3877.29 67.5,3877.5C 67.6641,3880.19 67.4974,3882.85 67,3885.5C 66.51,3884.21 66.3433,3882.87 66.5,3881.5C 65.1667,3881.5 63.8333,3881.5 62.5,3881.5C 62.5,3880.17 62.5,3878.83 62.5,3877.5C 60.8333,3877.5 59.1667,3877.5 57.5,3877.5C 57.5,3874.5 57.5,3871.5 57.5,3868.5C 56.1667,3868.5 54.8333,3868.5 53.5,3868.5C 53.2332,3855.46 52.3998,3842.46 51,3829.5C 50.8333,3311.67 50.6667,2793.83 50.5,2276C 50.6667,1758.17 50.8333,1240.33 51,722.5C 52.316,703.546 53.1493,684.546 53.5,665.5C 54.8333,665.5 56.1667,665.5 57.5,665.5C 57.5,664.167 57.5,662.833 57.5,661.5C 59.1667,661.5 60.8333,661.5 62.5,661.5C 62.5,660.167 62.5,658.833 62.5,657.5C 63.8333,657.5 65.1667,657.5 66.5,657.5C 66.3379,655.473 66.5045,653.473 67,651.5C 67.3333,654.167 67.6667,656.833 68,659.5C 69.1096,661.037 70.6096,661.703 72.5,661.5C 72.508,642.73 73.8414,624.063 76.5,605.5C 75.1064,603.354 74.4397,601.021 74.5,598.5C 79.5275,598.497 84.5275,598.164 89.5,597.5C 89.6932,593.551 90.1932,593.551 91,597.5C 91.7175,598.451 92.5509,598.617 93.5,598C 94.1667,596.667 94.8333,595.333 95.5,594C 95.6872,588.233 95.3539,582.4 94.5,576.5C 95.4415,576.511 96.1081,576.011 96.5,575C 96.0062,573.538 95.6728,572.038 95.5,570.5C 96.2406,565.167 96.9073,559.833 97.5,554.5C 103.464,553.693 109.464,553.36 115.5,553.5C 115.726,550.751 115.393,548.084 114.5,545.5C 116.65,543.696 116.984,541.529 115.5,539C 116,536.5 116.5,534 117,531.5C 118.011,530.663 119.178,530.33 120.5,530.5C 120.67,526.356 120.003,522.356 118.5,518.5C 118.833,518.167 119.167,517.833 119.5,517.5C 120.842,519.005 122.508,519.672 124.5,519.5C 124.5,517.5 124.5,515.5 124.5,513.5C 129.338,512.668 132.171,514.668 133,519.5C 133.333,517.5 133.667,515.5 134,513.5C 134.414,513.957 134.914,514.291 135.5,514.5C 136.938,507.238 137.605,499.905 137.5,492.5C 139.57,492.551 141.403,491.885 143,490.5C 143.95,491.022 144.784,491.689 145.5,492.5C 148.82,490.281 152.32,489.947 156,491.5C 156.707,489.919 157.54,488.419 158.5,487C 157.878,485.431 157.544,483.764 157.5,482C 159.337,477.902 160.004,473.735 159.5,469.5C 161.329,470.282 162.829,469.616 164,467.5C 165.017,470.028 166.184,470.028 167.5,467.5C 171.429,468.433 175.429,468.766 179.5,468.5C 179.715,463.208 179.715,458.041 179.5,453C 180.249,451.266 180.749,449.433 181,447.5C 187.142,446.668 193.475,445.668 200,444.5C 200.434,441.821 200.268,439.154 199.5,436.5C 199.395,432.188 201.062,428.855 204.5,426.5C 207.391,425.994 210.058,424.994 212.5,423.5C 215.167,424.833 217.833,424.833 220.5,423.5C 221.454,417.896 221.788,412.229 221.5,406.5C 225.681,406.236 229.681,405.236 233.5,403.5C 236.962,405.619 240.296,405.619 243.5,403.5C 243.261,397.643 243.594,391.643 244.5,385.5C 246.367,385.045 248.2,384.378 250,383.5C 256.272,384.914 262.439,383.914 268.5,380.5C 267.675,379.614 266.675,379.281 265.5,379.5C 265.032,375.869 265.699,372.535 267.5,369.5C 268.689,368.571 270.022,368.238 271.5,368.5C 271.5,366.5 271.5,364.5 271.5,362.5C 275.034,362.924 278.534,363.591 282,364.5C 283.842,362.84 286.009,361.84 288.5,361.5C 288.5,358.833 288.5,356.167 288.5,353.5C 289.833,353.5 291.167,353.5 292.5,353.5C 292.5,352.167 292.5,350.833 292.5,349.5C 294.167,349.5 295.833,349.5 297.5,349.5C 297.5,348.167 297.5,346.833 297.5,345.5C 300.5,345.5 303.5,345.5 306.5,345.5C 306.5,344.167 306.5,342.833 306.5,341.5C 310.111,341.956 313.444,341.289 316.5,339.5C 317.167,340.167 317.833,340.833 318.5,341.5C 319.784,340.415 321.284,339.748 323,339.5C 331.582,340.131 340.415,340.131 349.5,339.5C 349.5,333.833 349.5,328.167 349.5,322.5C 353.505,322.926 357.005,321.926 360,319.5C 366.255,321.112 372.588,320.778 379,318.5C 383.388,319.195 387.888,319.195 392.5,318.5C 391.278,314.835 391.278,311.169 392.5,307.5C 391.008,305.028 390.342,302.361 390.5,299.5C 392.143,299.48 393.476,300.147 394.5,301.5C 397.237,299.898 400.237,299.064 403.5,299C 421.93,298.558 440.263,298.058 458.5,297.5C 458.5,296.5 458.5,295.5 458.5,294.5C 456.833,294.5 455.167,294.5 453.5,294.5C 453.5,292.167 453.5,289.833 453.5,287.5C 454.5,287.5 455.5,287.5 456.5,287.5C 456.704,284.482 457.037,281.482 457.5,278.5 Z M 292.5,356.5 C 294.958,356.227 296.625,357.227 297.5,359.5C 296.113,359.807 294.446,359.807 292.5,359.5C 292.5,358.5 292.5,357.5 292.5,356.5 Z M 298.5,356.5 C 299.978,356.238 301.311,356.571 302.5,357.5C 301.833,357.833 301.167,358.167 300.5,358.5C 299.287,358.253 298.62,357.586 298.5,356.5 Z M 583.5,469.5 C 591.816,470.185 600.149,470.518 608.5,470.5C 608.5,471.5 608.5,472.5 608.5,473.5C 628.5,474.167 628.5,474.833 608.5,475.5C 608.5,476.833 608.5,478.167 608.5,479.5C 610.167,479.5 611.833,479.5 613.5,479.5C 613.5,480.833 613.5,482.167 613.5,483.5C 629.833,483.5 646.167,483.5 662.5,483.5C 662.5,482.167 662.5,480.833 662.5,479.5C 665.5,479.5 668.5,479.5 671.5,479.5C 671.5,478.167 671.5,476.833 671.5,475.5C 640.862,475.163 640.862,474.163 671.5,472.5C 673.8,471.722 675.966,470.722 678,469.5C 691.816,470.699 705.649,470.699 719.5,469.5C 719.065,472.613 720.065,473.279 722.5,471.5C 724.715,472.544 727.048,473.21 729.5,473.5C 733.92,472.457 738.254,471.124 742.5,469.5C 749.171,470.783 755.838,470.783 762.5,469.5C 764.949,470.225 767.283,471.225 769.5,472.5C 850.822,474.166 850.822,475.166 769.5,475.5C 769.5,476.833 769.5,478.167 769.5,479.5C 785.833,479.5 802.167,479.5 818.5,479.5C 818.5,480.833 818.5,482.167 818.5,483.5C 827.5,483.5 836.5,483.5 845.5,483.5C 845.5,482.167 845.5,480.833 845.5,479.5C 846.833,479.5 848.167,479.5 849.5,479.5C 849.5,478.167 849.5,476.833 849.5,475.5C 832.167,474.833 832.167,474.167 849.5,473.5C 849.5,472.5 849.5,471.5 849.5,470.5C 988.001,470.658 1126.5,470.325 1265,469.5C 1293.83,469.667 1322.67,469.833 1351.5,470C 1354.63,470.393 1357.63,471.226 1360.5,472.5C 1384.17,473.833 1407.83,473.833 1431.5,472.5C 1440.65,470.021 1449.98,469.021 1459.5,469.5C 2302.17,470.33 3144.84,470.664 3987.5,470.5C 3987.42,471.93 3987.75,473.264 3988.5,474.5C 3986.04,476.927 3985.04,479.927 3985.5,483.5C 3986.83,483.5 3988.17,483.5 3989.5,483.5C 3989.5,484.833 3989.5,486.167 3989.5,487.5C 3993.54,487.607 3997.54,487.274 4001.5,486.5C 4005.25,487.208 4008.91,488.208 4012.5,489.5C 4016.33,489.002 4020.16,488.668 4024,488.5C 4038.81,489.293 4053.65,489.793 4068.5,490C 4069.91,490.368 4070.91,491.201 4071.5,492.5C 4070.32,494.454 4069.65,496.621 4069.5,499C 4069.48,502.719 4070.15,506.219 4071.5,509.5C 4082.01,510.287 4092.51,511.287 4103,512.5C 4106.55,510.688 4109.72,511.188 4112.5,514C 4111.83,515 4111.17,516 4110.5,517C 4111.75,519.953 4111.75,522.953 4110.5,526C 4111.01,527.826 4111.84,527.993 4113,526.5C 4113.2,528.256 4113.7,529.922 4114.5,531.5C 4115.89,530.185 4116.89,530.519 4117.5,532.5C 4121.72,533.798 4125.88,533.798 4130,532.5C 4132.28,537.526 4133.44,542.859 4133.5,548.5C 4134.5,548.5 4135.5,548.5 4136.5,548.5C 4136.5,550.167 4136.5,551.833 4136.5,553.5C 4142.15,553.641 4147.65,553.641 4153,553.5C 4153.9,559.508 4154.74,565.508 4155.5,571.5C 4158.13,572.142 4160.8,572.809 4163.5,573.5C 4165.38,573.284 4167.05,572.617 4168.5,571.5C 4169.84,573.005 4171.51,573.672 4173.5,573.5C 4175.22,581.731 4176.22,590.064 4176.5,598.5C 4178.5,598.167 4180.5,597.833 4182.5,597.5C 4182.5,600.833 4182.5,604.167 4182.5,607.5C 4183.83,607.5 4185.17,607.5 4186.5,607.5C 4186.5,608.833 4186.5,610.167 4186.5,611.5C 4188.12,611.36 4189.29,612.027 4190,613.5C 4191.05,611.893 4192.55,611.227 4194.5,611.5C 4195.44,623.651 4197.11,635.651 4199.5,647.5C 4200.83,647.5 4202.17,647.5 4203.5,647.5C 4203.5,648.833 4203.5,650.167 4203.5,651.5C 4205.83,651.5 4208.17,651.5 4210.5,651.5C 4210.08,647.278 4210.74,643.278 4212.5,639.5C 4214.97,652.701 4215.97,665.868 4215.5,679C 4216.3,692.159 4216.97,705.326 4217.5,718.5C 4220.5,718.167 4221.83,719.5 4221.5,722.5C 4223.17,722.5 4224.83,722.5 4226.5,722.5C 4226.5,730.167 4226.5,737.833 4226.5,745.5C 4227.83,745.5 4229.17,745.5 4230.5,745.5C 4231.43,740.88 4231.93,733.547 4232,723.5C 4232.92,722.241 4233.76,720.908 4234.5,719.5C 4235.09,719.709 4235.59,720.043 4236,720.5C 4236.33,731.5 4236.67,742.5 4237,753.5C 4237.17,898.333 4237.33,1043.17 4237.5,1188C 4237.6,2025.16 4237.43,2862.32 4237,3699.5C 4236.93,3707.27 4236.09,3714.94 4234.5,3722.5C 4232.18,3716.4 4231.01,3710.07 4231,3703.5C 4230.51,3704.79 4230.34,3706.13 4230.5,3707.5C 4229.17,3707.5 4227.83,3707.5 4226.5,3707.5C 4226.5,3709.17 4226.5,3710.83 4226.5,3712.5C 4224.83,3712.5 4223.17,3712.5 4221.5,3712.5C 4221.5,3717.17 4221.5,3721.83 4221.5,3726.5C 4220.17,3726.5 4218.83,3726.5 4217.5,3726.5C 4215.84,3751.65 4214.51,3776.65 4213.5,3801.5C 4212.5,3801.5 4211.5,3801.5 4210.5,3801.5C 4210.5,3796.83 4210.5,3792.17 4210.5,3787.5C 4209.5,3787.5 4208.5,3787.5 4207.5,3787.5C 4207.5,3789.5 4207.5,3791.5 4207.5,3793.5C 4206.17,3793.5 4204.83,3793.5 4203.5,3793.5C 4203.5,3794.83 4203.5,3796.17 4203.5,3797.5C 4202.17,3797.5 4200.83,3797.5 4199.5,3797.5C 4199.54,3803.21 4199.71,3808.88 4200,3814.5C 4198.29,3813.86 4196.46,3813.86 4194.5,3814.5C 4194.55,3817.14 4195.22,3819.64 4196.5,3822C 4195.81,3826.81 4195.31,3831.64 4195,3836.5C 4192.28,3837.44 4189.45,3837.78 4186.5,3837.5C 4186.5,3838.83 4186.5,3840.17 4186.5,3841.5C 4183.17,3841.5 4179.83,3841.5 4176.5,3841.5C 4177.33,3846.48 4177.5,3851.48 4177,3856.5C 4175.27,3858.59 4174.11,3860.92 4173.5,3863.5C 4170.21,3864.21 4166.88,3864.54 4163.5,3864.5C 4163.5,3865.83 4163.5,3867.17 4163.5,3868.5C 4162.17,3868.5 4160.83,3868.5 4159.5,3868.5C 4159.82,3871.9 4159.49,3875.23 4158.5,3878.5C 4157.83,3878.17 4157.17,3877.83 4156.5,3877.5C 4154.09,3883.22 4152.92,3889.22 4153,3895.5C 4152.46,3897.63 4151.62,3899.63 4150.5,3901.5C 4147.95,3900.64 4145.45,3899.64 4143,3898.5C 4141.2,3899.38 4139.37,3900.05 4137.5,3900.5C 4137.5,3901.5 4137.5,3902.5 4137.5,3903.5C 4135.86,3903.29 4134.36,3903.62 4133,3904.5C 4131.84,3909.8 4131.01,3915.13 4130.5,3920.5C 4126.07,3920.49 4121.91,3921.49 4118,3923.5C 4117.23,3923.36 4116.56,3923.02 4116,3922.5C 4115.32,3924.36 4114.32,3926.03 4113,3927.5C 4112.69,3926.69 4112.19,3926.03 4111.5,3925.5C 4109.09,3929.87 4109.09,3934.2 4111.5,3938.5C 4111.17,3939.5 4110.83,3940.5 4110.5,3941.5C 4104.79,3942.96 4099.12,3943.62 4093.5,3943.5C 4090.67,3949.98 4090,3956.64 4091.5,3963.5C 4084.77,3963.76 4077.94,3964.43 4071,3965.5C 4069.18,3967.13 4067.85,3969.13 4067,3971.5C 4065.62,3968.94 4064.12,3968.94 4062.5,3971.5C 4061.57,3972.69 4061.24,3974.02 4061.5,3975.5C 4059.83,3975.5 4058.17,3975.5 4056.5,3975.5C 4056.8,3977.6 4056.47,3979.6 4055.5,3981.5C 4054.83,3980.83 4054.17,3980.17 4053.5,3979.5C 4052.76,3980.99 4052.09,3982.49 4051.5,3984C 4044.14,3985.06 4036.8,3985.23 4029.5,3984.5C 4029.5,3985.83 4029.5,3987.17 4029.5,3988.5C 4028.5,3988.5 4027.5,3988.5 4026.5,3988.5C 4026.59,3990.7 4026.92,3992.86 4027.5,3995C 4027.46,3996.89 4026.79,3997.89 4025.5,3998C 4025.95,3999.29 4026.62,4000.45 4027.5,4001.5C 4026.83,4002.17 4026.17,4002.83 4025.5,4003.5C 4021.49,4004.23 4017.49,4004.89 4013.5,4005.5C 4008.75,4005.72 4003.92,4005.39 3999,4004.5C 3951.57,4005.83 3904.07,4006.49 3856.5,4006.5C 3856.5,4008.17 3856.5,4009.83 3856.5,4011.5C 3846.5,4011.5 3836.5,4011.5 3826.5,4011.5C 3826.5,4012.83 3826.5,4014.17 3826.5,4015.5C 3824.5,4015.5 3822.5,4015.5 3820.5,4015.5C 3820.13,4018.06 3820.97,4020.06 3823,4021.5C 3826.84,4022.07 3830.68,4022.73 3834.5,4023.5C 3828.65,4025.13 3822.65,4025.97 3816.5,4026C 3709.5,4026.67 3602.5,4026.67 3495.5,4026C 3488.04,4025.97 3480.71,4025.13 3473.5,4023.5C 3479.44,4022.31 3485.44,4021.64 3491.5,4021.5C 3491.5,4019.5 3491.5,4017.5 3491.5,4015.5C 3490.17,4015.5 3488.83,4015.5 3487.5,4015.5C 3487.5,4014.17 3487.5,4012.83 3487.5,4011.5C 3411.83,4011.5 3336.17,4011.5 3260.5,4011.5C 3260.5,4012.83 3260.5,4014.17 3260.5,4015.5C 3259.17,4015.5 3257.83,4015.5 3256.5,4015.5C 3256.5,4016.83 3256.5,4018.17 3256.5,4019.5C 3254.71,4019.21 3253.05,4019.55 3251.5,4020.5C 3256.13,4021.33 3260.8,4021.83 3265.5,4022C 3282.84,4022.17 3300.18,4022.67 3317.5,4023.5C 3293.99,4024.37 3270.49,4025.37 3247,4026.5C 3232.18,4024.67 3217.35,4024.33 3202.5,4025.5C 3192.12,4025.56 3181.78,4024.89 3171.5,4023.5C 3181.14,4022.43 3190.8,4021.76 3200.5,4021.5C 3213.17,4022.76 3225.84,4022.76 3238.5,4021.5C 3238.5,4019.5 3238.5,4017.5 3238.5,4015.5C 3236.83,4015.5 3235.17,4015.5 3233.5,4015.5C 3233.5,4014.17 3233.5,4012.83 3233.5,4011.5C 3224.5,4011.5 3215.5,4011.5 3206.5,4011.5C 3206.5,4012.83 3206.5,4014.17 3206.5,4015.5C 3202.5,4015.5 3198.5,4015.5 3194.5,4015.5C 3194.5,4014.17 3194.5,4012.83 3194.5,4011.5C 3167.81,4011.56 3141.14,4010.89 3114.5,4009.5C 3114.5,4008.5 3114.5,4007.5 3114.5,4006.5C 3088.83,4006.5 3063.17,4006.5 3037.5,4006.5C 3037.5,4007.5 3037.5,4008.5 3037.5,4009.5C 3034.5,4009.5 3031.5,4009.5 3028.5,4009.5C 3028.5,4008.5 3028.5,4007.5 3028.5,4006.5C 3009.5,4006.5 2990.5,4006.5 2971.5,4006.5C 2971.5,4007.5 2971.5,4008.5 2971.5,4009.5C 2969.83,4009.5 2968.17,4009.5 2966.5,4009.5C 2966.5,4008.5 2966.5,4007.5 2966.5,4006.5C 2957.83,4006.5 2949.17,4006.5 2940.5,4006.5C 2940.5,4007.5 2940.5,4008.5 2940.5,4009.5C 2934.77,4010.63 2928.94,4011.3 2923,4011.5C 2910.18,4010.53 2897.35,4009.86 2884.5,4009.5C 2811.18,4011.33 2737.85,4012 2664.5,4011.5C 2664.5,4012.83 2664.5,4014.17 2664.5,4015.5C 2660.17,4015.5 2655.83,4015.5 2651.5,4015.5C 2651.5,4016.83 2651.5,4018.17 2651.5,4019.5C 2649.4,4019.2 2647.4,4019.53 2645.5,4020.5C 2661.31,4021.63 2677.15,4022.3 2693,4022.5C 2725.67,4022.25 2758.33,4021.92 2791,4021.5C 2842.31,4022.84 2842.31,4024.17 2791,4025.5C 2758.67,4025.42 2726.34,4025.09 2694,4024.5C 2673,4025.22 2652,4025.89 2631,4026.5C 2565.16,4026.05 2499.32,4025.05 2433.5,4023.5C 2494.49,4022.08 2555.49,4021.08 2616.5,4020.5C 2614.95,4019.55 2613.29,4019.21 2611.5,4019.5C 2611.5,4018.17 2611.5,4016.83 2611.5,4015.5C 2599.83,4015.5 2588.17,4015.5 2576.5,4015.5C 2576.5,4014.17 2576.5,4012.83 2576.5,4011.5C 2564.17,4011.5 2551.83,4011.5 2539.5,4011.5C 2539.5,4012.83 2539.5,4014.17 2539.5,4015.5C 2530.83,4015.5 2522.17,4015.5 2513.5,4015.5C 2513.5,4014.17 2513.5,4012.83 2513.5,4011.5C 2443.75,4012.14 2374.08,4011.47 2304.5,4009.5C 2304.5,4008.5 2304.5,4007.5 2304.5,4006.5C 1836.52,4005.94 1368.52,4005.6 900.5,4005.5C 843.982,4005.55 787.482,4006.22 731,4007.5C 671.189,4005.76 611.355,4004.92 551.5,4005C 539.03,4005.04 526.697,4004.21 514.5,4002.5C 514.5,4001.5 514.5,4000.5 514.5,3999.5C 515.5,3999.5 516.5,3999.5 517.5,3999.5C 517.026,3995.55 515.692,3991.88 513.5,3988.5C 511.273,3987.95 508.939,3987.95 506.5,3988.5C 506.5,3987.17 506.5,3985.83 506.5,3984.5C 493.967,3985.74 481.467,3985.41 469,3983.5C 465.005,3983.84 460.839,3984.01 456.5,3984C 455.05,3978.06 453.05,3972.23 450.5,3966.5C 440.973,3964.88 431.64,3963.54 422.5,3962.5C 422.5,3961.5 422.5,3960.5 422.5,3959.5C 425.167,3959.5 427.833,3959.5 430.5,3959.5C 430.5,3957.17 430.5,3954.83 430.5,3952.5C 429.167,3952.5 427.833,3952.5 426.5,3952.5C 426.5,3951.17 426.5,3949.83 426.5,3948.5C 423.833,3948.5 421.167,3948.5 418.5,3948.5C 418.5,3947.17 418.5,3945.83 418.5,3944.5C 409.322,3944.18 399.989,3943.01 390.5,3941C 390.677,3935.94 390.343,3930.78 389.5,3925.5C 388.833,3926.17 388.167,3926.83 387.5,3927.5C 386.534,3925.6 386.201,3923.6 386.5,3921.5C 382.815,3922 379.149,3922.67 375.5,3923.5C 369.278,3921.47 362.945,3919.81 356.5,3918.5C 354.476,3919.02 352.476,3919.19 350.5,3919C 349.85,3909.4 348.517,3899.9 346.5,3890.5C 345.167,3890.5 343.833,3890.5 342.5,3890.5C 342.5,3888.83 342.5,3887.17 342.5,3885.5C 341.167,3885.5 339.833,3885.5 338.5,3885.5C 338.5,3884.17 338.5,3882.83 338.5,3881.5C 334.97,3880.99 331.804,3881.66 329,3883.5C 328.5,3877.18 328.334,3870.84 328.5,3864.5C 327.167,3864.5 325.833,3864.5 324.5,3864.5C 324.5,3863.17 324.5,3861.83 324.5,3860.5C 319.195,3859.81 313.862,3859.47 308.5,3859.5C 308.552,3852 307.552,3844.67 305.5,3837.5C 304.5,3837.5 303.5,3837.5 302.5,3837.5C 302.5,3834.5 302.5,3831.5 302.5,3828.5C 301.167,3828.5 299.833,3828.5 298.5,3828.5C 298.5,3826.83 298.5,3825.17 298.5,3823.5C 296.5,3823.5 294.5,3823.5 292.5,3823.5C 292.5,3822.17 292.5,3820.83 292.5,3819.5C 291.5,3819.5 290.5,3819.5 289.5,3819.5C 289.928,3822.56 290.594,3825.56 291.5,3828.5C 290.167,3828.5 288.833,3828.5 287.5,3828.5C 287.963,3825.52 288.296,3822.52 288.5,3819.5C 287.5,3819.5 286.5,3819.5 285.5,3819.5C 285.683,3812.13 285.35,3804.8 284.5,3797.5C 279.341,3796.87 274.174,3796.2 269,3795.5C 266.973,3796.73 265.64,3796.4 265,3794.5C 264.782,3790.01 264.949,3785.51 265.5,3781C 263.53,3767.86 263.196,3754.69 264.5,3741.5C 261.607,3733.35 260.94,3725.02 262.5,3716.5C 260.833,3716.5 259.167,3716.5 257.5,3716.5C 257.5,3715.17 257.5,3713.83 257.5,3712.5C 255.409,3712.32 253.409,3712.65 251.5,3713.5C 250.614,3714.32 250.281,3715.32 250.5,3716.5C 249.5,3716.5 248.5,3716.5 247.5,3716.5C 245.106,3707.15 244.439,3697.65 245.5,3688C 244.8,3601.34 243.8,3514.68 242.5,3428C 243.73,3285.67 244.396,3143.34 244.5,3001C 243.812,2750.5 243.145,2500 242.5,2249.5C 242.537,2115.16 243.203,1980.82 244.5,1846.5C 243.24,1776.01 242.574,1705.51 242.5,1635C 242.609,1561.15 243.275,1487.32 244.5,1413.5C 240.51,1414.18 238.843,1412.51 239.5,1408.5C 241.719,1391.4 242.052,1374.23 240.5,1357C 240.302,1352.42 239.636,1347.92 238.5,1343.5C 238.833,1342.5 239.167,1341.5 239.5,1340.5C 240.086,1340.71 240.586,1341.04 241,1341.5C 241.499,1336.85 241.666,1332.18 241.5,1327.5C 240.5,1327.5 239.5,1327.5 238.5,1327.5C 240.317,1305.23 240.984,1282.9 240.5,1260.5C 238.833,1260.5 237.167,1260.5 235.5,1260.5C 235.5,1259.17 235.5,1257.83 235.5,1256.5C 233.167,1256.5 230.833,1256.5 228.5,1256.5C 228.82,1259.9 228.487,1263.23 227.5,1266.5C 226.029,1265.62 225.196,1264.29 225,1262.5C 224.833,1252.67 224.667,1242.83 224.5,1233C 224.303,1219.11 224.969,1205.28 226.5,1191.5C 228.181,1199.74 228.848,1208.07 228.5,1216.5C 229.5,1216.5 230.5,1216.5 231.5,1216.5C 231.5,1213.83 231.5,1211.17 231.5,1208.5C 232.833,1208.5 234.167,1208.5 235.5,1208.5C 235.5,1205.5 235.5,1202.5 235.5,1199.5C 237.167,1199.5 238.833,1199.5 240.5,1199.5C 241.129,1161.43 240.463,1123.43 238.5,1085.5C 238.783,1082.26 239.617,1081.92 241,1084.5C 241.5,1073.84 241.667,1063.17 241.5,1052.5C 240.5,1052.5 239.5,1052.5 238.5,1052.5C 240.33,1022.88 240.997,993.216 240.5,963.5C 238.833,963.5 237.167,963.5 235.5,963.5C 235.5,960.5 235.5,957.5 235.5,954.5C 234.167,954.5 232.833,954.5 231.5,954.5C 231.5,953.167 231.5,951.833 231.5,950.5C 230.5,950.5 229.5,950.5 228.5,950.5C 228.753,956.873 228.419,963.206 227.5,969.5C 227.167,970.167 226.833,970.833 226.5,971.5C 225.682,968.893 225.182,966.226 225,963.5C 224.333,914.5 224.333,865.5 225,816.5C 225.172,812.129 225.672,807.796 226.5,803.5C 227.298,805.078 227.798,806.744 228,808.5C 228.5,817.494 228.666,826.494 228.5,835.5C 229.5,835.5 230.5,835.5 231.5,835.5C 231.5,832.167 231.5,828.833 231.5,825.5C 232.833,825.5 234.167,825.5 235.5,825.5C 235.5,821.167 235.5,816.833 235.5,812.5C 237.167,812.5 238.833,812.5 240.5,812.5C 240.267,802.135 240.6,791.802 241.5,781.5C 242.5,781.5 243.5,781.5 244.5,781.5C 243.81,772.681 243.143,763.848 242.5,755C 244.398,729.798 245.398,704.632 245.5,679.5C 250.87,679.608 256.203,679.275 261.5,678.5C 262.639,673.713 263.639,668.88 264.5,664C 264.445,661.443 264.112,658.943 263.5,656.5C 264.559,653.765 265.225,650.931 265.5,648C 264.432,644.461 264.432,640.961 265.5,637.5C 266,637.167 266.5,636.833 267,636.5C 273.604,639.641 279.104,638.307 283.5,632.5C 284.192,633.025 284.692,633.692 285,634.5C 285.292,623.765 286.126,613.098 287.5,602.5C 286.652,600.591 286.318,598.591 286.5,596.5C 292.955,596.85 299.289,596.183 305.5,594.5C 307.186,591.92 308.186,589.087 308.5,586C 307.882,582.284 307.882,578.618 308.5,575C 316.173,575.079 323.173,573.913 329.5,571.5C 329.036,565.76 329.036,560.094 329.5,554.5C 335.055,554.486 340.389,554.319 345.5,554C 346.594,552.22 347.594,550.386 348.5,548.5C 349.167,549.167 349.833,549.833 350.5,550.5C 351.037,547.137 351.371,543.803 351.5,540.5C 352.487,543.768 352.82,547.102 352.5,550.5C 353.5,550.5 354.5,550.5 355.5,550.5C 355.5,548.5 355.5,546.5 355.5,544.5C 358.167,544.5 360.833,544.5 363.5,544.5C 363.5,542.167 363.5,539.833 363.5,537.5C 360.606,537.042 358.106,537.709 356,539.5C 355.316,538.216 355.483,537.049 356.5,536C 358.788,535.178 361.122,534.511 363.5,534C 370.498,534.045 377.332,533.212 384,531.5C 384.945,531.905 385.612,532.572 386,533.5C 387.049,531.893 388.549,531.227 390.5,531.5C 391.336,528.408 392.003,525.241 392.5,522C 392.292,519.509 391.625,517.175 390.5,515C 391.891,511.544 394.391,510.711 398,512.5C 408.837,511.423 419.671,510.423 430.5,509.5C 430.553,506.86 431.22,504.36 432.5,502C 431.016,499.471 431.35,497.304 433.5,495.5C 430.921,493.562 430.921,491.729 433.5,490C 447.192,489.799 460.859,489.299 474.5,488.5C 477.301,489.062 480.135,489.395 483,489.5C 486.891,488.979 490.724,488.312 494.5,487.5C 494.5,486.167 494.5,484.833 494.5,483.5C 495.5,483.5 496.5,483.5 497.5,483.5C 497.5,482.167 497.5,480.833 497.5,479.5C 499.5,479.5 501.5,479.5 503.5,479.5C 503.5,480.833 503.5,482.167 503.5,483.5C 504.5,483.5 505.5,483.5 506.5,483.5C 506.5,484.833 506.5,486.167 506.5,487.5C 527.167,487.5 547.833,487.5 568.5,487.5C 568.5,486.167 568.5,484.833 568.5,483.5C 570.167,483.5 571.833,483.5 573.5,483.5C 573.5,482.167 573.5,480.833 573.5,479.5C 574.833,479.5 576.167,479.5 577.5,479.5C 577.5,478.167 577.5,476.833 577.5,475.5C 572.167,474.833 572.167,474.167 577.5,473.5C 577.5,472.5 577.5,471.5 577.5,470.5C 579.735,470.795 581.735,470.461 583.5,469.5 Z M 496.5,470.5 C 498.924,470.192 501.257,470.526 503.5,471.5C 502.333,471.833 501.167,472.167 500,472.5C 498.319,472.392 497.152,471.725 496.5,470.5 Z M 496.5,473.5 C 498.924,473.192 501.257,473.526 503.5,474.5C 502.333,474.833 501.167,475.167 500,475.5C 498.319,475.392 497.152,474.725 496.5,473.5 Z M 350.5,534.5 C 351.5,534.5 352.5,534.5 353.5,534.5C 353.66,536.199 353.494,537.866 353,539.5C 351.108,538.383 350.275,536.716 350.5,534.5 Z M 4190.5,597.5 C 4192.46,597.948 4192.8,598.948 4191.5,600.5C 4190.61,599.675 4190.28,598.675 4190.5,597.5 Z M 225.5,795.5 C 226.586,795.62 227.253,796.287 227.5,797.5C 227.167,798.167 226.833,798.833 226.5,799.5C 225.571,798.311 225.238,796.978 225.5,795.5 Z M 4430.5,1003.5 C 4431.29,1004.61 4431.79,1005.94 4432,1007.5C 4432.17,1021 4432.33,1034.5 4432.5,1048C 4431.5,1107.33 4430.5,1107.33 4429.5,1048C 4429.53,1033.14 4429.87,1018.31 4430.5,1003.5 Z M 2477.5,1077.5 C 2479.34,1077.64 2479.67,1078.31 2478.5,1079.5C 2477.7,1079.04 2477.37,1078.38 2477.5,1077.5 Z M 225.5,1101.5 C 226.5,1101.5 227.5,1101.5 228.5,1101.5C 228.667,1117.5 228.5,1133.5 228,1149.5C 227.798,1151.26 227.298,1152.92 226.5,1154.5C 225.5,1136.85 225.167,1119.18 225.5,1101.5 Z M 1844.5,1524.5 C 1845.82,1527.77 1846.49,1531.43 1846.5,1535.5C 1847.86,1555.53 1847.52,1575.53 1845.5,1595.5C 1843.19,1571.86 1842.86,1548.19 1844.5,1524.5 Z M 2570.5,1545.5 C 2571.5,1545.5 2572.5,1545.5 2573.5,1545.5C 2573.5,1547.5 2573.5,1549.5 2573.5,1551.5C 2572.5,1551.5 2571.5,1551.5 2570.5,1551.5C 2570.5,1549.5 2570.5,1547.5 2570.5,1545.5 Z M 4430.5,2124.5 C 4432.04,2130.42 4432.71,2136.59 4432.5,2143C 4431.5,2166.33 4430.5,2166.33 4429.5,2143C 4429.62,2136.81 4429.96,2130.65 4430.5,2124.5 Z M 4430.5,2173.5 C 4431.32,2175.97 4431.82,2178.64 4432,2181.5C 4432.5,2190.49 4432.67,2199.49 4432.5,2208.5C 4431.5,2208.5 4430.5,2208.5 4429.5,2208.5C 4429.36,2196.82 4429.7,2185.15 4430.5,2173.5 Z M 937.5,2200.5 C 938.83,2206.8 939.497,2213.46 939.5,2220.5C 939.167,2227.17 938.833,2233.83 938.5,2240.5C 936.292,2227.21 935.959,2213.88 937.5,2200.5 Z M 4170.5,3868.5 C 4171.5,3868.5 4172.5,3868.5 4173.5,3868.5C 4173.5,3870.17 4173.5,3871.83 4173.5,3873.5C 4172.5,3873.5 4171.5,3873.5 4170.5,3873.5C 4170.5,3871.83 4170.5,3870.17 4170.5,3868.5 Z M 4171.5,3875.5 C 4172.59,3875.62 4173.25,3876.29 4173.5,3877.5C 4173.17,3878.17 4172.83,3878.83 4172.5,3879.5C 4171.57,3878.31 4171.24,3876.98 4171.5,3875.5 Z M 4063.5,3975.5 C 4064.5,3975.5 4065.5,3975.5 4066.5,3975.5C 4066.51,3977.55 4066.84,3979.55 4067.5,3981.5C 4067.13,3982.91 4066.3,3983.91 4065,3984.5C 4064.19,3982.42 4063.03,3980.59 4061.5,3979C 4062.97,3978.29 4063.64,3977.12 4063.5,3975.5 Z M 2312.5,4022.5 C 2343.84,4022.17 2375.17,4022.5 2406.5,4023.5C 2390.34,4024.42 2374.18,4025.09 2358,4025.5C 2342.46,4025.45 2327.29,4024.45 2312.5,4022.5 Z M 3424.5,4022.5 C 3429.21,4022.17 3433.88,4022.51 3438.5,4023.5C 3436.17,4023.83 3433.83,4024.17 3431.5,4024.5C 3428.73,4024.47 3426.4,4023.8 3424.5,4022.5 Z M 3443.5,4022.5 C 3452.5,4022.5 3461.5,4022.5 3470.5,4022.5C 3470.5,4023.5 3470.5,4024.5 3470.5,4025.5C 3461.5,4025.5 3452.5,4025.5 3443.5,4025.5C 3443.5,4024.5 3443.5,4023.5 3443.5,4022.5 Z"/></g>
<g><path style="opacity:0.004" fill="#fefffe" d="M 724.5,475.5 C 727.833,475.5 731.167,475.5 734.5,475.5C 734.5,476.833 734.5,478.167 734.5,479.5C 731.167,479.5 727.833,479.5 724.5,479.5C 724.5,478.167 724.5,476.833 724.5,475.5 Z"/></g>
<g><path style="opacity:0.004" fill="#fefffe" d="M 1360.5,475.5 C 1384.17,475.5 1407.83,475.5 1431.5,475.5C 1431.5,476.833 1431.5,478.167 1431.5,479.5C 1407.83,479.5 1384.17,479.5 1360.5,479.5C 1360.5,478.167 1360.5,476.833 1360.5,475.5 Z"/></g>
<g><path style="opacity:0.916" fill="#fefffe" d="M 2028.5,1018.5 C 2089.26,1019.79 2150.09,1019.79 2211,1018.5C 2235.81,1019.96 2260.64,1020.96 2285.5,1021.5C 2285.5,1022.83 2285.5,1024.17 2285.5,1025.5C 2287.5,1025.5 2289.5,1025.5 2291.5,1025.5C 2290.87,1030.14 2290.54,1034.81 2290.5,1039.5C 2308.89,1039.44 2327.39,1039.11 2346,1038.5C 2364.79,1040.16 2383.62,1040.99 2402.5,1041C 2407.95,1043.12 2413.62,1044.29 2419.5,1044.5C 2424.06,1043.05 2428.73,1042.39 2433.5,1042.5C 2433.5,1044.17 2433.5,1045.83 2433.5,1047.5C 2435.17,1047.5 2436.83,1047.5 2438.5,1047.5C 2438.5,1050.17 2438.5,1052.83 2438.5,1055.5C 2436.71,1055.21 2435.05,1055.55 2433.5,1056.5C 2435.16,1057.33 2436.5,1058.49 2437.5,1060C 2443.02,1060.35 2448.52,1060.85 2454,1061.5C 2455.56,1061.4 2457.06,1061.06 2458.5,1060.5C 2459.17,1061.5 2459.83,1062.5 2460.5,1063.5C 2464.58,1061.65 2468.92,1060.99 2473.5,1061.5C 2473.5,1062.83 2473.5,1064.17 2473.5,1065.5C 2476.5,1065.5 2479.5,1065.5 2482.5,1065.5C 2482.69,1069.64 2482.03,1073.64 2480.5,1077.5C 2480.71,1078.99 2481.38,1080.16 2482.5,1081C 2495.92,1081.46 2509.25,1082.62 2522.5,1084.5C 2522.5,1085.83 2522.5,1087.17 2522.5,1088.5C 2523.83,1088.5 2525.17,1088.5 2526.5,1088.5C 2526.22,1093.56 2526.55,1098.56 2527.5,1103.5C 2530.45,1104.32 2533.45,1104.82 2536.5,1105C 2538.08,1105.44 2539.41,1106.27 2540.5,1107.5C 2542.71,1105.08 2543.71,1105.74 2543.5,1109.5C 2544.5,1109.5 2545.5,1109.5 2546.5,1109.5C 2547.22,1115.14 2547.55,1120.8 2547.5,1126.5C 2552.07,1127.74 2556.73,1128.4 2561.5,1128.5C 2561.5,1129.83 2561.5,1131.17 2561.5,1132.5C 2563.17,1132.5 2564.83,1132.5 2566.5,1132.5C 2568.39,1170.32 2569.06,1208.16 2568.5,1246C 2569.15,1283.67 2569.82,1321.34 2570.5,1359C 2568.79,1371.84 2568.13,1384.67 2568.5,1397.5C 2569.26,1427.83 2570.26,1458.17 2571.5,1488.5C 2572.49,1475.18 2573.15,1461.85 2573.5,1448.5C 2575.83,1448.5 2578.17,1448.5 2580.5,1448.5C 2580.5,1449.83 2580.5,1451.17 2580.5,1452.5C 2581.83,1452.5 2583.17,1452.5 2584.5,1452.5C 2584.5,1464.5 2584.5,1476.5 2584.5,1488.5C 2586.17,1488.5 2587.83,1488.5 2589.5,1488.5C 2589.88,1501.06 2589.22,1513.56 2587.5,1526C 2588.82,1532.44 2589.49,1538.94 2589.5,1545.5C 2587.83,1545.5 2586.17,1545.5 2584.5,1545.5C 2584.5,1547.5 2584.5,1549.5 2584.5,1551.5C 2586.17,1551.5 2587.83,1551.5 2589.5,1551.5C 2589.84,1558.6 2589.17,1565.6 2587.5,1572.5C 2590.03,1593.97 2591.03,1615.64 2590.5,1637.5C 2590.4,1655.2 2589.73,1672.87 2588.5,1690.5C 2589.79,1726.97 2590.45,1763.47 2590.5,1800C 2590.17,1834.17 2589.83,1868.33 2589.5,1902.5C 2587.47,1904.45 2587.13,1906.62 2588.5,1909C 2863.9,1908.53 3139.23,1908.37 3414.5,1908.5C 3424.74,1908.34 3434.91,1909.01 3445,1910.5C 3448.68,1910.27 3452.34,1909.94 3456,1909.5C 3460.74,1910.88 3465.58,1911.55 3470.5,1911.5C 3470.5,1912.83 3470.5,1914.17 3470.5,1915.5C 3471.83,1915.5 3473.17,1915.5 3474.5,1915.5C 3474.33,1917.85 3474,1920.18 3473.5,1922.5C 3474.43,1927.06 3475.76,1931.06 3477.5,1934.5C 3480.93,1934.24 3484.27,1933.58 3487.5,1932.5C 3487.5,1934.17 3487.5,1935.83 3487.5,1937.5C 3488.83,1937.5 3490.17,1937.5 3491.5,1937.5C 3491.5,1939.17 3491.5,1940.83 3491.5,1942.5C 3492.83,1942.5 3494.17,1942.5 3495.5,1942.5C 3496.27,1954.82 3496.93,1967.15 3497.5,1979.5C 3497.5,1989.61 3496.5,1999.61 3494.5,2009.5C 3492.11,2008.48 3491.11,2009.48 3491.5,2012.5C 3487.12,2012.37 3482.79,2012.71 3478.5,2013.5C 3477.91,2219.47 3477.25,2425.47 3476.5,2631.5C 3473.71,2637.65 3473.04,2643.98 3474.5,2650.5C 3472.23,2650.28 3470.06,2649.62 3468,2648.5C 3464.66,2650.04 3461.16,2650.71 3457.5,2650.5C 3456.65,2656.12 3456.31,2661.79 3456.5,2667.5C 3454.83,2667.5 3453.17,2667.5 3451.5,2667.5C 3451.5,2668.83 3451.5,2670.17 3451.5,2671.5C 3446.33,2671.06 3441.33,2671.73 3436.5,2673.5C 3434.91,2672.64 3433.25,2671.97 3431.5,2671.5C 3424.47,2672.09 3417.47,2672.76 3410.5,2673.5C 3409.23,2672.95 3407.89,2672.62 3406.5,2672.5C 3372,2673.16 3337.5,2673.83 3303,2674.5C 3058.63,2673.82 2814.13,2673.82 2569.5,2674.5C 2568.27,2676.4 2568.6,2678.06 2570.5,2679.5C 2568.76,2698.18 2567.76,2717.01 2567.5,2736C 2568.16,2842.63 2568.83,2949.3 2569.5,3056C 2568.77,3178.46 2568.94,3300.96 2570,3423.5C 2570.18,3426.23 2570.68,3428.89 2571.5,3431.5C 2573.18,3427.35 2573.85,3423.01 2573.5,3418.5C 2575.83,3418.5 2578.17,3418.5 2580.5,3418.5C 2580.5,3420.17 2580.5,3421.83 2580.5,3423.5C 2581.83,3423.5 2583.17,3423.5 2584.5,3423.5C 2584.5,3431.17 2584.5,3438.83 2584.5,3446.5C 2583.17,3446.5 2581.83,3446.5 2580.5,3446.5C 2580.5,3447.83 2580.5,3449.17 2580.5,3450.5C 2578.17,3450.5 2575.83,3450.5 2573.5,3450.5C 2573.85,3445.99 2573.18,3441.65 2571.5,3437.5C 2571.17,3439 2570.83,3440.5 2570.5,3442C 2568.91,3462.81 2567.57,3483.65 2566.5,3504.5C 2564.83,3504.5 2563.17,3504.5 2561.5,3504.5C 2561.5,3507.17 2561.5,3509.83 2561.5,3512.5C 2560.17,3512.5 2558.83,3512.5 2557.5,3512.5C 2557.5,3514.17 2557.5,3515.83 2557.5,3517.5C 2554.17,3517.5 2550.83,3517.5 2547.5,3517.5C 2547.14,3523.27 2546.14,3528.94 2544.5,3534.5C 2544.59,3536.23 2544.92,3537.89 2545.5,3539.5C 2539.47,3538.54 2533.14,3538.54 2526.5,3539.5C 2526.5,3543.83 2526.5,3548.17 2526.5,3552.5C 2525.17,3552.5 2523.83,3552.5 2522.5,3552.5C 2522.5,3554.17 2522.5,3555.83 2522.5,3557.5C 2520.83,3557.5 2519.17,3557.5 2517.5,3557.5C 2517.5,3558.83 2517.5,3560.17 2517.5,3561.5C 2505.19,3561.54 2492.86,3562.21 2480.5,3563.5C 2481.17,3568.83 2481.83,3574.17 2482.5,3579.5C 2478.15,3578.33 2473.82,3578.33 2469.5,3579.5C 2469.5,3581.17 2469.5,3582.83 2469.5,3584.5C 2451.47,3581.89 2433.47,3581.89 2415.5,3584.5C 2415.5,3582.83 2415.5,3581.17 2415.5,3579.5C 2388.85,3578.84 2362.19,3578.84 2335.5,3579.5C 2335.5,3580.5 2335.5,3581.5 2335.5,3582.5C 2322.65,3582.73 2309.82,3583.4 2297,3584.5C 2291.06,3584.41 2285.22,3583.74 2279.5,3582.5C 2211.17,3585.03 2142.83,3585.03 2074.5,3582.5C 2070.28,3583.7 2065.95,3584.37 2061.5,3584.5C 2050.54,3583.17 2039.54,3582.5 2028.5,3582.5C 2028.5,3581.5 2028.5,3580.5 2028.5,3579.5C 2022.87,3578.65 2017.2,3578.65 2011.5,3579.5C 2011.5,3578.17 2011.5,3576.83 2011.5,3575.5C 2009.5,3575.5 2007.5,3575.5 2005.5,3575.5C 2005.5,3573.83 2005.5,3572.17 2005.5,3570.5C 2004.02,3570.76 2002.69,3570.43 2001.5,3569.5C 2007.32,3569.02 2012.99,3568.02 2018.5,3566.5C 2016.23,3565.69 2013.9,3565.19 2011.5,3565C 1981.4,3563.08 1951.4,3561.91 1921.5,3561.5C 1921.5,3560.17 1921.5,3558.83 1921.5,3557.5C 1920.17,3557.5 1918.83,3557.5 1917.5,3557.5C 1917.07,3554.44 1916.41,3551.44 1915.5,3548.5C 1914.5,3548.5 1913.5,3548.5 1912.5,3548.5C 1912.5,3547.5 1912.5,3546.5 1912.5,3545.5C 1914.53,3545.66 1916.53,3545.5 1918.5,3545C 1918.96,3544.59 1919.29,3544.09 1919.5,3543.5C 1918.33,3543.17 1917.17,3542.83 1916,3542.5C 1903.09,3541.73 1890.25,3540.39 1877.5,3538.5C 1877.5,3537.17 1877.5,3535.83 1877.5,3534.5C 1875.83,3534.5 1874.17,3534.5 1872.5,3534.5C 1871.62,3529.1 1871.29,3523.77 1871.5,3518.5C 1866.58,3519.13 1862.08,3518.13 1858,3515.5C 1855.64,3516.78 1853.14,3517.45 1850.5,3517.5C 1851.78,3510.48 1851.11,3503.64 1848.5,3497C 1848.91,3495.86 1849.24,3494.69 1849.5,3493.5C 1848.13,3487.92 1847.47,3482.25 1847.5,3476.5C 1848.21,3469.17 1848.37,3461.84 1848,3454.5C 1846.3,3443.95 1844.8,3443.95 1843.5,3454.5C 1841.5,3454.5 1839.5,3454.5 1837.5,3454.5C 1837.5,3453.17 1837.5,3451.83 1837.5,3450.5C 1836.17,3450.5 1834.83,3450.5 1833.5,3450.5C 1833.72,3445.94 1833.06,3441.61 1831.5,3437.5C 1830.5,3437.5 1829.5,3437.5 1828.5,3437.5C 1828,3390.15 1828,3342.82 1828.5,3295.5C 1829.5,3295.5 1830.5,3295.5 1831.5,3295.5C 1831.08,3291.62 1831.58,3287.96 1833,3284.5C 1834.03,3249.12 1833.53,3213.79 1831.5,3178.5C 1830.5,3178.5 1829.5,3178.5 1828.5,3178.5C 1828.5,3165.17 1828.5,3151.83 1828.5,3138.5C 1829.5,3138.5 1830.5,3138.5 1831.5,3138.5C 1833.21,3133.06 1833.87,3127.39 1833.5,3121.5C 1834.83,3121.5 1836.17,3121.5 1837.5,3121.5C 1837.5,3099.17 1837.5,3076.83 1837.5,3054.5C 1838.83,3054.5 1840.17,3054.5 1841.5,3054.5C 1841.19,3051.75 1841.52,3049.09 1842.5,3046.5C 1843.33,3071.49 1843.83,3096.49 1844,3121.5C 1844.62,3125.93 1845.62,3126.26 1847,3122.5C 1847.45,3083.5 1847.95,3044.5 1848.5,3005.5C 1848.19,2917.32 1848.19,2829.15 1848.5,2741C 1848.33,2738.83 1848.17,2736.67 1848,2734.5C 1846.29,2730.59 1844.45,2730.59 1842.5,2734.5C 1841.67,2733.59 1840.67,2732.92 1839.5,2732.5C 1837.67,2733.75 1835.67,2734.42 1833.5,2734.5C 1832.83,2731.5 1832.17,2728.5 1831.5,2725.5C 1830.5,2725.5 1829.5,2725.5 1828.5,2725.5C 1828.6,2715.15 1828.27,2704.81 1827.5,2694.5C 1676.5,2694.9 1525.5,2694.24 1374.5,2692.5C 1374.5,2691.5 1374.5,2690.5 1374.5,2689.5C 1370.61,2689.73 1366.78,2689.39 1363,2688.5C 1359.38,2690.26 1355.55,2690.92 1351.5,2690.5C 1351.5,2688.83 1351.5,2687.17 1351.5,2685.5C 1350.17,2685.5 1348.83,2685.5 1347.5,2685.5C 1347.5,2683.17 1347.5,2680.83 1347.5,2678.5C 1350.61,2678.34 1353.61,2677.68 1356.5,2676.5C 1355.67,2676.17 1354.83,2675.83 1354,2675.5C 1344.56,2674.03 1335.06,2673.36 1325.5,2673.5C 1243.65,2675.18 1161.99,2674.52 1080.5,2671.5C 1078.05,2671.79 1075.71,2672.46 1073.5,2673.5C 1068.67,2671.73 1063.67,2671.06 1058.5,2671.5C 1058.5,2670.17 1058.5,2668.83 1058.5,2667.5C 1055.83,2667.5 1053.17,2667.5 1050.5,2667.5C 1050.18,2663.45 1050.51,2659.45 1051.5,2655.5C 1053.26,2656.95 1054.6,2656.62 1055.5,2654.5C 1054.62,2653.75 1053.62,2653.25 1052.5,2653C 1038.16,2652.64 1023.83,2651.47 1009.5,2649.5C 1008.55,2649.99 1007.55,2650.32 1006.5,2650.5C 1003.79,2649.39 1000.96,2648.72 998,2648.5C 994.414,2648.92 990.914,2649.59 987.5,2650.5C 987.5,2648.5 987.5,2646.5 987.5,2644.5C 986.167,2644.5 984.833,2644.5 983.5,2644.5C 983.5,2643.17 983.5,2641.83 983.5,2640.5C 981.833,2640.5 980.167,2640.5 978.5,2640.5C 978.5,2639.17 978.5,2637.83 978.5,2636.5C 976.833,2636.5 975.167,2636.5 973.5,2636.5C 973.5,2635.5 973.5,2634.5 973.5,2633.5C 977.884,2633.83 982.217,2633.49 986.5,2632.5C 984.748,2631 982.748,2630 980.5,2629.5C 978.23,2630.43 976.063,2630.76 974,2630.5C 973.511,2628.4 972.345,2628.06 970.5,2629.5C 966.765,2629.33 963.598,2628 961,2625.5C 956.822,2627.4 952.322,2628.07 947.5,2627.5C 947.5,2624.5 947.5,2621.5 947.5,2618.5C 946.167,2618.5 944.833,2618.5 943.5,2618.5C 943.624,2612.41 942.958,2606.41 941.5,2600.5C 940.505,2502.83 939.505,2405.17 938.5,2307.5C 937.719,2308.73 937.219,2310.06 937,2311.5C 936.5,2358.83 936.333,2406.17 936.5,2453.5C 935.5,2453.5 934.5,2453.5 933.5,2453.5C 933.5,2452.17 933.5,2450.83 933.5,2449.5C 932.167,2449.5 930.833,2449.5 929.5,2449.5C 929.5,2448.17 929.5,2446.83 929.5,2445.5C 927.833,2445.5 926.167,2445.5 924.5,2445.5C 924.5,2439.17 924.5,2432.83 924.5,2426.5C 926.167,2426.5 927.833,2426.5 929.5,2426.5C 929.5,2406.17 929.5,2385.83 929.5,2365.5C 927.833,2365.5 926.167,2365.5 924.5,2365.5C 924.5,2346.17 924.5,2326.83 924.5,2307.5C 923.167,2307.5 921.833,2307.5 920.5,2307.5C 920.5,2283.5 920.5,2259.5 920.5,2235.5C 921.833,2235.5 923.167,2235.5 924.5,2235.5C 924.5,2223.83 924.5,2212.17 924.5,2200.5C 923.167,2200.5 921.833,2200.5 920.5,2200.5C 919.916,2176.73 920.583,2153.07 922.5,2129.5C 921.5,2129.5 920.5,2129.5 919.5,2129.5C 919.334,2124.49 919.501,2119.49 920,2114.5C 920.984,2116.79 921.817,2116.46 922.5,2113.5C 922,2112.5 921.5,2111.5 921,2110.5C 920.333,2100.5 920.333,2090.5 921,2080.5C 921.944,2079.74 922.444,2078.74 922.5,2077.5C 920.543,2054.6 919.876,2031.6 920.5,2008.5C 921.833,2008.5 923.167,2008.5 924.5,2008.5C 924.5,2005.5 924.5,2002.5 924.5,1999.5C 926.167,1999.5 927.833,1999.5 929.5,1999.5C 929.5,1998.17 929.5,1996.83 929.5,1995.5C 931.833,1995.5 934.167,1995.5 936.5,1995.5C 936.196,2001.58 936.696,2007.58 938,2013.5C 938.333,2011.83 938.667,2010.17 939,2008.5C 939.331,1983.82 939.997,1959.16 941,1934.5C 942.294,1933.15 942.46,1931.81 941.5,1930.5C 943.37,1925.74 944.037,1920.74 943.5,1915.5C 944.833,1915.5 946.167,1915.5 947.5,1915.5C 947.5,1914.17 947.5,1912.83 947.5,1911.5C 952.861,1912 958.028,1911.33 963,1909.5C 965.885,1910.95 968.551,1910.61 971,1908.5C 1088.25,1909.2 1205.75,1909.53 1323.5,1909.5C 1492.86,1908.9 1662.19,1908.24 1831.5,1907.5C 1831.88,1905.06 1831.21,1904.39 1829.5,1905.5C 1828.5,1899.87 1828.17,1894.21 1828.5,1888.5C 1830.17,1888.5 1831.83,1888.5 1833.5,1888.5C 1833.5,1884.17 1833.5,1879.83 1833.5,1875.5C 1834.83,1875.5 1836.17,1875.5 1837.5,1875.5C 1837.5,1874.17 1837.5,1872.83 1837.5,1871.5C 1839.5,1871.5 1841.5,1871.5 1843.5,1871.5C 1844.74,1883.41 1846.24,1883.41 1848,1871.5C 1847.66,1825.98 1847.83,1780.48 1848.5,1735C 1847.79,1698.84 1846.79,1662.67 1845.5,1626.5C 1844.23,1662.16 1843.23,1697.82 1842.5,1733.5C 1841.57,1732.31 1841.24,1730.98 1841.5,1729.5C 1840.17,1729.5 1838.83,1729.5 1837.5,1729.5C 1837.5,1726.17 1837.5,1722.83 1837.5,1719.5C 1836.17,1719.5 1834.83,1719.5 1833.5,1719.5C 1833.5,1716.5 1833.5,1713.5 1833.5,1710.5C 1834.83,1710.5 1836.17,1710.5 1837.5,1710.5C 1837.5,1695.83 1837.5,1681.17 1837.5,1666.5C 1836.17,1666.5 1834.83,1666.5 1833.5,1666.5C 1833.67,1617.83 1833.5,1569.17 1833,1520.5C 1831.73,1519.1 1831.23,1517.43 1831.5,1515.5C 1830.5,1515.5 1829.5,1515.5 1828.5,1515.5C 1828.34,1406.43 1828.34,1297.77 1828.5,1189.5C 1830.17,1189.5 1831.83,1189.5 1833.5,1189.5C 1833.5,1185.17 1833.5,1180.83 1833.5,1176.5C 1834.83,1176.5 1836.17,1176.5 1837.5,1176.5C 1837.5,1175.17 1837.5,1173.83 1837.5,1172.5C 1839.5,1172.5 1841.5,1172.5 1843.5,1172.5C 1843.5,1173.83 1843.5,1175.17 1843.5,1176.5C 1844.83,1176.5 1846.17,1176.5 1847.5,1176.5C 1847.91,1168.31 1848.57,1160.15 1849.5,1152C 1849.23,1150.49 1848.9,1148.99 1848.5,1147.5C 1850.13,1143.32 1851.13,1138.99 1851.5,1134.5C 1850.56,1131.87 1850.39,1129.2 1851,1126.5C 1851.39,1127.43 1852.05,1128.09 1853,1128.5C 1854.09,1127.7 1855.26,1127.04 1856.5,1126.5C 1860.84,1126.51 1865.17,1126.84 1869.5,1127.5C 1870.4,1120.19 1871.23,1112.86 1872,1105.5C 1873.25,1107.99 1874.42,1107.82 1875.5,1105C 1880.83,1104.43 1886.17,1103.93 1891.5,1103.5C 1890.68,1096.24 1892.01,1089.57 1895.5,1083.5C 1898.33,1081.36 1900.99,1081.36 1903.5,1083.5C 1904.2,1081.62 1905.2,1081.28 1906.5,1082.5C 1908.44,1081.81 1910.44,1081.31 1912.5,1081C 1913.43,1080.61 1914.09,1079.95 1914.5,1079C 1912.7,1074.7 1912.03,1070.2 1912.5,1065.5C 1914.17,1065.5 1915.83,1065.5 1917.5,1065.5C 1917.5,1064.17 1917.5,1062.83 1917.5,1061.5C 1920.39,1061.04 1922.89,1061.71 1925,1063.5C 1925.25,1062.38 1925.75,1061.38 1926.5,1060.5C 1936.01,1060.12 1945.51,1060.12 1955,1060.5C 1956.4,1058.19 1956.56,1055.85 1955.5,1053.5C 1957.42,1050.83 1958.59,1047.83 1959,1044.5C 1961.12,1043.26 1963.28,1042.09 1965.5,1041C 1969.87,1040.83 1974.2,1040.33 1978.5,1039.5C 1979.41,1036.58 1979.74,1033.58 1979.5,1030.5C 1980.83,1030.5 1982.17,1030.5 1983.5,1030.5C 1983.5,1028.83 1983.5,1027.17 1983.5,1025.5C 1985.17,1025.5 1986.83,1025.5 1988.5,1025.5C 1988.5,1024.17 1988.5,1022.83 1988.5,1021.5C 1998.01,1021.38 2007.51,1021.05 2017,1020.5C 2021.23,1020.49 2025.06,1019.82 2028.5,1018.5 Z M 2477.5,1077.5 C 2477.37,1078.38 2477.7,1079.04 2478.5,1079.5C 2479.67,1078.31 2479.34,1077.64 2477.5,1077.5 Z M 1844.5,1524.5 C 1842.86,1548.19 1843.19,1571.86 1845.5,1595.5C 1847.52,1575.53 1847.86,1555.53 1846.5,1535.5C 1846.49,1531.43 1845.82,1527.77 1844.5,1524.5 Z M 2570.5,1545.5 C 2570.5,1547.5 2570.5,1549.5 2570.5,1551.5C 2571.5,1551.5 2572.5,1551.5 2573.5,1551.5C 2573.5,1549.5 2573.5,1547.5 2573.5,1545.5C 2572.5,1545.5 2571.5,1545.5 2570.5,1545.5 Z M 937.5,2200.5 C 935.959,2213.88 936.292,2227.21 938.5,2240.5C 938.833,2233.83 939.167,2227.17 939.5,2220.5C 939.497,2213.46 938.83,2206.8 937.5,2200.5 Z"/></g>
<g><path style="opacity:0.004" fill="#fefffe" d="M 2573.5,1225.5 C 2574.5,1225.5 2575.5,1225.5 2576.5,1225.5C 2576.5,1226.83 2576.5,1228.17 2576.5,1229.5C 2577.83,1229.5 2579.17,1229.5 2580.5,1229.5C 2580.5,1231.5 2580.5,1233.5 2580.5,1235.5C 2579.17,1235.5 2577.83,1235.5 2576.5,1235.5C 2576.5,1236.83 2576.5,1238.17 2576.5,1239.5C 2575.5,1239.5 2574.5,1239.5 2573.5,1239.5C 2573.5,1234.83 2573.5,1230.17 2573.5,1225.5 Z"/></g>
<g><path style="opacity:0.004" fill="#fefffe" d="M 2573.5,1287.5 C 2574.5,1287.5 2575.5,1287.5 2576.5,1287.5C 2576.5,1289.17 2576.5,1290.83 2576.5,1292.5C 2577.83,1292.5 2579.17,1292.5 2580.5,1292.5C 2580.5,1301.5 2580.5,1310.5 2580.5,1319.5C 2579.17,1319.5 2577.83,1319.5 2576.5,1319.5C 2576.5,1320.83 2576.5,1322.17 2576.5,1323.5C 2575.5,1323.5 2574.5,1323.5 2573.5,1323.5C 2573.5,1311.5 2573.5,1299.5 2573.5,1287.5 Z"/></g>
<g><path style="opacity:0.004" fill="#fefffe" d="M 2573.5,1346.5 C 2575.83,1346.5 2578.17,1346.5 2580.5,1346.5C 2580.5,1347.83 2580.5,1349.17 2580.5,1350.5C 2581.83,1350.5 2583.17,1350.5 2584.5,1350.5C 2584.5,1354.83 2584.5,1359.17 2584.5,1363.5C 2583.17,1363.5 2581.83,1363.5 2580.5,1363.5C 2580.5,1365.17 2580.5,1366.83 2580.5,1368.5C 2579.17,1368.5 2577.83,1368.5 2576.5,1368.5C 2576.5,1370.17 2576.5,1371.83 2576.5,1373.5C 2575.5,1373.5 2574.5,1373.5 2573.5,1373.5C 2573.5,1364.5 2573.5,1355.5 2573.5,1346.5 Z"/></g>
<g><path style="opacity:0.004" fill="#fefffe" d="M 2573.5,1413.5 C 2574.5,1413.5 2575.5,1413.5 2576.5,1413.5C 2576.5,1416.17 2576.5,1418.83 2576.5,1421.5C 2577.83,1421.5 2579.17,1421.5 2580.5,1421.5C 2580.5,1422.83 2580.5,1424.17 2580.5,1425.5C 2579.17,1425.5 2577.83,1425.5 2576.5,1425.5C 2576.5,1427.17 2576.5,1428.83 2576.5,1430.5C 2575.5,1430.5 2574.5,1430.5 2573.5,1430.5C 2573.5,1424.83 2573.5,1419.17 2573.5,1413.5 Z"/></g>
<g><path style="opacity:0.004" fill="#fefffe" d="M 4433.5,1434.5 C 4435.18,1435.18 4435.84,1436.52 4435.5,1438.5C 4436.83,1438.5 4438.17,1438.5 4439.5,1438.5C 4439.5,1440.5 4439.5,1442.5 4439.5,1444.5C 4438.17,1444.5 4436.83,1444.5 4435.5,1444.5C 4435.81,1447.25 4435.48,1449.91 4434.5,1452.5C 4432.62,1446.55 4432.28,1440.55 4433.5,1434.5 Z"/></g>
<g><path style="opacity:0.004" fill="#fefffe" d="M 4433.5,1519.5 C 4435.26,1520.55 4435.92,1522.22 4435.5,1524.5C 4436.83,1524.5 4438.17,1524.5 4439.5,1524.5C 4439.5,1525.83 4439.5,1527.17 4439.5,1528.5C 4438.17,1528.5 4436.83,1528.5 4435.5,1528.5C 4435.81,1531.25 4435.48,1533.91 4434.5,1536.5C 4432.67,1530.88 4432.34,1525.21 4433.5,1519.5 Z"/></g>
<g><path style="opacity:0.004" fill="#fefffe" d="M 4433.5,1564.5 C 4435.18,1565.18 4435.84,1566.52 4435.5,1568.5C 4436.83,1568.5 4438.17,1568.5 4439.5,1568.5C 4439.5,1570.5 4439.5,1572.5 4439.5,1574.5C 4437.51,1574.33 4435.84,1575 4434.5,1576.5C 4434.17,1576.17 4433.83,1575.83 4433.5,1575.5C 4432.49,1571.87 4432.49,1568.2 4433.5,1564.5 Z"/></g>
<g><path style="opacity:0.004" fill="#fefffe" d="M 4230.5,1626.5 C 4231.96,1632.38 4231.96,1635.38 4230.5,1635.5C 4229.17,1635.5 4227.83,1635.5 4226.5,1635.5C 4226.5,1633.83 4226.5,1632.17 4226.5,1630.5C 4227.83,1630.5 4229.17,1630.5 4230.5,1630.5C 4230.5,1629.17 4230.5,1627.83 4230.5,1626.5 Z"/></g>
<g><path style="opacity:0.004" fill="#fefffe" d="M 4433.5,1687.5 C 4435.31,1688.92 4435.97,1690.92 4435.5,1693.5C 4436.83,1693.5 4438.17,1693.5 4439.5,1693.5C 4439.5,1696.5 4439.5,1699.5 4439.5,1702.5C 4438.17,1702.5 4436.83,1702.5 4435.5,1702.5C 4434.97,1707.8 4434.13,1707.8 4433,1702.5C 4432.61,1697.49 4432.78,1692.49 4433.5,1687.5 Z"/></g>
<g><path style="opacity:0.004" fill="#fefffe" d="M 4433.5,1773.5 C 4435.18,1774.18 4435.84,1775.52 4435.5,1777.5C 4436.83,1777.5 4438.17,1777.5 4439.5,1777.5C 4439.5,1780.5 4439.5,1783.5 4439.5,1786.5C 4438.17,1786.5 4436.83,1786.5 4435.5,1786.5C 4434.97,1791.8 4434.13,1791.8 4433,1786.5C 4432.47,1782.14 4432.63,1777.81 4433.5,1773.5 Z"/></g>
<g><path style="opacity:0.004" fill="#fefffe" d="M 4433.5,1817.5 C 4435.18,1818.18 4435.84,1819.52 4435.5,1821.5C 4436.83,1821.5 4438.17,1821.5 4439.5,1821.5C 4439.5,1822.83 4439.5,1824.17 4439.5,1825.5C 4441.17,1825.5 4442.83,1825.5 4444.5,1825.5C 4444.5,1843.83 4444.5,1862.17 4444.5,1880.5C 4442.83,1880.5 4441.17,1880.5 4439.5,1880.5C 4439.5,1890.83 4439.5,1901.17 4439.5,1911.5C 4438.17,1911.5 4436.83,1911.5 4435.5,1911.5C 4434.97,1916.8 4434.13,1916.8 4433,1911.5C 4432.2,1880.14 4432.36,1848.81 4433.5,1817.5 Z"/></g>
<g><path style="opacity:0.004" fill="#fefffe" d="M 4433.5,1942.5 C 4435.18,1943.18 4435.84,1944.52 4435.5,1946.5C 4436.83,1946.5 4438.17,1946.5 4439.5,1946.5C 4439.5,1955.83 4439.5,1965.17 4439.5,1974.5C 4438.17,1974.5 4436.83,1974.5 4435.5,1974.5C 4434.99,1985.15 4434.16,1985.15 4433,1974.5C 4432.26,1963.81 4432.43,1953.14 4433.5,1942.5 Z"/></g>
<g><path style="opacity:0.005" fill="#fefffe" d="M 4432.5,1999.5 C 4434.83,1999.5 4437.17,1999.5 4439.5,1999.5C 4439.5,2000.83 4439.5,2002.17 4439.5,2003.5C 4441.17,2003.5 4442.83,2003.5 4444.5,2003.5C 4444.5,2017.5 4444.5,2031.5 4444.5,2045.5C 4442.83,2045.5 4441.17,2045.5 4439.5,2045.5C 4439.5,2046.83 4439.5,2048.17 4439.5,2049.5C 4437.17,2049.5 4434.83,2049.5 4432.5,2049.5C 4432.5,2032.83 4432.5,2016.17 4432.5,1999.5 Z"/></g>
<g><path style="opacity:0.004" fill="#fefffe" d="M 4433.5,2070.5 C 4435.26,2071.55 4435.92,2073.22 4435.5,2075.5C 4436.83,2075.5 4438.17,2075.5 4439.5,2075.5C 4439.5,2077.17 4439.5,2078.83 4439.5,2080.5C 4438.17,2080.5 4436.83,2080.5 4435.5,2080.5C 4435.79,2082.29 4435.45,2083.95 4434.5,2085.5C 4432.19,2080.63 4431.86,2075.63 4433.5,2070.5 Z"/></g>
<g><path style="opacity:0.004" fill="#fefffe" d="M 4433.5,2409.5 C 4435.18,2410.18 4435.84,2411.52 4435.5,2413.5C 4436.83,2413.5 4438.17,2413.5 4439.5,2413.5C 4439.5,2422.5 4439.5,2431.5 4439.5,2440.5C 4438.17,2440.5 4436.83,2440.5 4435.5,2440.5C 4434.98,2447.14 4434.14,2447.14 4433,2440.5C 4432.27,2430.14 4432.43,2419.81 4433.5,2409.5 Z"/></g>
<g><path style="opacity:0.004" fill="#fefffe" d="M 2573.5,2678.5 C 2580.2,2678.17 2586.87,2678.5 2593.5,2679.5C 2590.17,2679.83 2586.83,2680.17 2583.5,2680.5C 2579.76,2680.49 2576.43,2679.82 2573.5,2678.5 Z"/></g>
<g><path style="opacity:0.004" fill="#fefffe" d="M 2645.5,2678.5 C 2650.54,2678.17 2655.54,2678.51 2660.5,2679.5C 2658,2679.83 2655.5,2680.17 2653,2680.5C 2650.07,2680.48 2647.57,2679.81 2645.5,2678.5 Z"/></g>
<g><path style="opacity:0.004" fill="#fefffe" d="M 2900.5,2678.5 C 2911.19,2678.17 2921.85,2678.5 2932.5,2679.5C 2927.17,2679.83 2921.83,2680.17 2916.5,2680.5C 2910.79,2680.49 2905.46,2679.83 2900.5,2678.5 Z"/></g>
<g><path style="opacity:0.004" fill="#fefffe" d="M 1841.5,2751.5 C 1842.78,2752.69 1843.44,2754.36 1843.5,2756.5C 1843.17,2758.17 1842.83,2759.83 1842.5,2761.5C 1841.51,2758.23 1841.18,2754.9 1841.5,2751.5 Z"/></g>
<g><path style="opacity:0.004" fill="#fefffe" d="M 1841.5,2912.5 C 1842.83,2918.8 1843.5,2925.46 1843.5,2932.5C 1843.17,2939.17 1842.83,2945.83 1842.5,2952.5C 1841.55,2950.95 1841.21,2949.29 1841.5,2947.5C 1840.17,2947.5 1838.83,2947.5 1837.5,2947.5C 1837.5,2943.17 1837.5,2938.83 1837.5,2934.5C 1836.17,2934.5 1834.83,2934.5 1833.5,2934.5C 1833.5,2929.83 1833.5,2925.17 1833.5,2920.5C 1834.83,2920.5 1836.17,2920.5 1837.5,2920.5C 1837.5,2919.17 1837.5,2917.83 1837.5,2916.5C 1838.83,2916.5 1840.17,2916.5 1841.5,2916.5C 1841.5,2915.17 1841.5,2913.83 1841.5,2912.5 Z"/></g>
<g><path style="opacity:0.004" fill="#fefffe" d="M 4230.5,3152.5 C 4231.96,3158.38 4231.96,3161.38 4230.5,3161.5C 4229.17,3161.5 4227.83,3161.5 4226.5,3161.5C 4226.5,3159.5 4226.5,3157.5 4226.5,3155.5C 4227.83,3155.5 4229.17,3155.5 4230.5,3155.5C 4230.5,3154.5 4230.5,3153.5 4230.5,3152.5 Z"/></g>
<g><path style="opacity:0.004" fill="#fefffe" d="M 1841.5,3473.5 C 1842.75,3474.33 1843.41,3475.67 1843.5,3477.5C 1843.17,3478.83 1842.83,3480.17 1842.5,3481.5C 1841.52,3478.91 1841.19,3476.25 1841.5,3473.5 Z"/></g>
<g><path style="opacity:0.004" fill="#fefffe" d="M 353.5,3912.5 C 355.465,3912.95 355.798,3913.95 354.5,3915.5C 353.614,3914.68 353.281,3913.68 353.5,3912.5 Z"/></g>
<g><path style="opacity:0.004" fill="#fefffe" d="M 3958.5,4204.5 C 3961.9,4204.18 3965.23,4204.51 3968.5,4205.5C 3966.83,4205.83 3965.17,4206.17 3963.5,4206.5C 3961.36,4206.44 3959.69,4205.78 3958.5,4204.5 Z"/></g>
</svg>
