<?xml version="1.0" encoding="utf-8"?>
<!DOCTYPE svg PUBLIC "-//W3C//DTD SVG 1.0//EN" "http://www.w3.org/TR/2001/REC-SVG-20010904/DTD/svg10.dtd">
<svg version="1.0" xmlns="http://www.w3.org/2000/svg" width="1080px" height="1080px" viewBox="0 0 1080 1080" preserveAspectRatio="xMidYMid meet">
 <g fill="#ffffff">
  <path d="M201.5 859 l-21 -0.5 0 -137.7 c0 -108.5 0.3 -138 1.2 -138.9 1 -1 14.2 -1.4 56.3 -1.7 30.3 -0.2 57.1 -0.1 59.6 0.3 3.9 0.5 5.5 1.5 9.5 5.7 2.7 2.8 4.9 5.6 4.9 6.2 0 0.6 1.8 3.6 4 6.6 2.2 3 4.6 7.1 5.5 9 0.9 1.9 2.2 4.1 2.9 5 0.8 0.8 2.7 4 4.3 7 3.5 6.6 10.2 16.3 16.1 23.3 2.4 2.9 5.8 6.9 7.5 9 6.6 8 31.5 32.4 37.5 36.7 3.4 2.5 7.9 5.7 9.9 7.3 1.9 1.5 3.9 2.7 4.3 2.7 0.5 0 3.1 1.8 5.8 3.9 2.8 2.2 6.5 4.7 8.4 5.5 1.8 0.9 6.5 3.8 10.3 6.6 3.9 2.8 9 6.2 11.5 7.5 6.6 3.6 12.5 8.5 15.7 13 l2.8 4 0.3 56.4 c0.3 58.1 0.1 61 -3.6 62.7 -1.9 0.9 -219.8 1.2 -253.7 0.4z"/>
  <path d="M595.3 857.7 l-2.3 -1.8 0 -50.5 c0 -43.2 0.2 -51 1.5 -54.2 1.6 -3.7 5.3 -7.4 12 -12.2 2 -1.4 6 -4.4 8.8 -6.7 2.9 -2.3 6.4 -4.7 7.7 -5.3 1.4 -0.6 4.5 -2.4 7 -4 2.5 -1.7 5.8 -3.8 7.4 -4.8 5.8 -3.5 25.3 -19.4 32.6 -26.4 23.4 -22.7 36 -35.4 39.8 -40.1 9.5 -11.6 14 -17.3 15.3 -19.9 0.8 -1.5 4 -6 7.1 -10.1 3.2 -4.2 6.3 -8.6 6.9 -9.9 0.6 -1.2 2.4 -4.5 4 -7.3 1.6 -2.7 3.7 -6.6 4.7 -8.5 2.6 -5.2 5.3 -9.1 8.8 -12.7 l3.1 -3.3 62.7 0 c61.8 0 62.6 0 64.7 2.1 l2 2 -0.6 130.2 c-0.3 71.6 -0.8 132.6 -1.1 135.4 -0.3 2.9 -1.3 6.2 -2.2 7.3 -1.7 2 -2 2 -144.6 2.3 -137 0.2 -143.1 0.1 -145.3 -1.6z"/>
  <path d="M195.4 460.2 c-12.4 -0.2 -13.2 -0.4 -14.1 -2.5 -0.6 -1.4 -0.9 -46.9 -0.7 -127.2 l0.3 -125 2.2 -1.8 c2 -1.6 10 -1.7 136.8 -1.7 113.9 0 135 0.2 136.6 1.4 1.7 1.2 2 3.3 2.7 16.7 0.4 8.5 0.7 29.7 0.6 47.2 -0.1 29.8 -0.3 32 -2 34.3 -2.2 2.7 -10.7 7.1 -15.9 8 -1.9 0.4 -4.5 1.4 -5.9 2.2 -4.9 3.1 -15.5 8.2 -17.1 8.2 -0.9 0 -2.7 0.9 -4.1 1.9 -1.3 1.1 -5.3 3.4 -8.8 5.2 -5.9 2.9 -10.7 6.3 -20.9 14.6 -5 4.1 -5.9 5.1 -6.6 7.3 -0.3 1.1 -1 2 -1.4 2 -0.5 0 -4.7 4.8 -9.4 10.8 -4.7 5.9 -9.4 11.6 -10.4 12.8 -1 1.1 -3 3.8 -4.4 6 -2.5 3.8 -8.5 12.8 -11.3 16.9 -4.7 7.1 -8.9 13.9 -12.1 20 -2.1 3.9 -4.7 8.4 -5.9 10 -3.3 4.6 -4.2 6.3 -9 16 -2.4 5 -5.6 10.3 -7 11.8 -5.4 5.8 -5.6 5.8 -54.4 5.5 -24.6 -0.2 -50.6 -0.4 -57.8 -0.6z"/>
  <path d="M753 460.3 c-6 -0.3 -8.1 -0.9 -10.7 -2.9 -1.8 -1.4 -3.3 -3 -3.3 -3.7 0 -0.7 -2.2 -5.7 -5 -11.2 -2.7 -5.5 -5 -10.8 -5 -11.7 0 -0.9 -0.5 -2 -1 -2.3 -1 -0.6 -3.4 -4.8 -8.4 -14.4 -5.4 -10.5 -16.8 -26.1 -26.6 -36.6 -3.6 -3.8 -7.9 -8.6 -9.5 -10.5 -4.3 -5 -19 -17.7 -22.5 -19.5 -1.7 -0.9 -3 -1.9 -3 -2.3 0 -0.7 -12 -8.2 -17.8 -11.1 -1.5 -0.7 -3.6 -2.2 -4.7 -3.1 -1.1 -1 -4.7 -3.2 -8 -4.9 -3.2 -1.8 -6.6 -3.8 -7.5 -4.5 -0.8 -0.8 -2.6 -1.7 -4 -2.1 -7.6 -2.2 -22.2 -11 -23.4 -14.1 -0.8 -2.1 -0.6 -95.6 0.2 -101.9 0.6 -4.2 1.1 -5.2 3.7 -6.4 4.1 -2.1 83.9 -3.5 200 -3.5 94.2 -0.1 91.8 -0.2 93.1 4.8 0.3 1.4 0.2 59.4 -0.3 129.1 l-0.8 126.7 -2.9 2.3 c-1.6 1.3 -4.5 2.6 -6.5 3 -3.9 0.7 -113.8 1.4 -126.1 0.8z"/>
 </g>
</svg>